<?xml version="1.0" encoding="utf-8"?>
<!DOCTYPE svg PUBLIC "-//W3C//DTD SVG 1.0//EN" "http://www.w3.org/TR/2001/REC-SVG-20010904/DTD/svg10.dtd">
<svg version="1.0" xmlns="http://www.w3.org/2000/svg" width="293px" height="293px" viewBox="0 0 293 293" preserveAspectRatio="xMidYMid meet">
 <g fill="#fcfafa">
  <path d="M0 146.50 l0 -146.50 70.10 0 c67.16 0 70.10 0.03 70.10 0.52 0 0.46 -0.52 0.54 -4.81 0.86 -35.17 2.58 -68.90 18.51 -93.57 44.21 -23.29 24.26 -36.85 53.94 -39.86 87.18 -0.46 5.06 -0.37 15.85 0.17 21.60 1.95 20.94 8.58 40.92 19.83 59.52 3.86 6.35 9.70 14.42 13.96 19.20 1.95 2.17 2.15 2.83 1.52 4.64 -0.46 1.32 0.37 2.86 3.23 6.07 11.87 13.28 30.42 26.38 48.70 34.45 23.63 10.44 49.44 14.39 73.85 11.30 22.06 -2.80 42.63 -10.42 61.49 -22.78 7.27 -4.78 11.39 -7.93 18.05 -13.85 4.35 -3.86 10.79 -10.42 11.39 -11.59 0.37 -0.69 0.43 -1.34 0.29 -2.78 l-0.17 -1.83 1.55 -1.69 c16.82 -18.34 29.64 -44.92 33.88 -70.22 0.86 -5.09 1.86 -14.13 1.86 -16.94 0 -1.12 0.11 -1.95 0.29 -1.95 0.17 0 0.29 -1.06 0.29 -2.58 0 -1.52 -0.11 -2.58 -0.29 -2.58 -0.17 0 -0.29 -0.97 -0.29 -2.37 0 -1.32 -0.20 -4.49 -0.43 -7.10 -4.18 -44.47 -29.56 -84.95 -68.30 -108.87 -10.01 -6.18 -22.29 -11.67 -33.74 -15.14 -10.13 -3.03 -18.43 -4.64 -31.65 -6.04 -1.26 -0.11 -1.52 -0.26 -1.52 -0.72 0 -0.54 1.03 -0.54 68.53 -0.54 l68.53 0 0 146.50 0 146.50 -146.50 0 -146.50 0 0 -146.50z"/>
  <path d="M252.08 233.86 c0 -0.57 0.31 -1.83 0.72 -2.80 0.37 -0.97 0.83 -2.66 1.03 -3.78 0.80 -4.81 -2.06 -11.90 -6.55 -16.40 -5.32 -5.26 -13.33 -8.01 -18.94 -6.44 -0.86 0.26 -2.12 0.52 -2.78 0.63 l-1.23 0.17 0 -1.03 c0 -0.72 0.26 -1.32 0.80 -1.97 4.35 -5.06 10.70 -16.08 13.79 -23.83 7.30 -18.37 8.90 -35.77 5.01 -54.19 -3.61 -17.11 -12.56 -34.28 -24.26 -46.58 -6.27 -6.58 -11.13 -10.73 -18.23 -15.42 -16.94 -11.27 -37.71 -17.20 -58.08 -16.62 -14.76 0.43 -28.53 3.89 -42.20 10.64 -26.35 12.99 -44.81 35.85 -52.08 64.52 -4.49 17.74 -3.32 37.43 3.26 54.99 3.40 9.01 8.76 18.60 14.16 25.35 1.37 1.72 1.89 2.58 1.89 3.20 0 0.77 -0.09 0.86 -0.94 0.86 -0.54 0 -1.97 -0.26 -3.20 -0.57 -4.44 -1.14 -9.10 -0.54 -13.71 1.72 -6.07 2.95 -10.59 8.13 -12.30 14.05 -0.80 2.78 -0.92 4.46 -0.60 7.93 l0.23 2.35 -0.92 0 c-1.09 0 -1.32 -0.23 -5.15 -5.29 -16.11 -21.32 -25.58 -46.10 -27.53 -71.93 -0.43 -5.87 -0.17 -20.66 0.43 -25.64 2.23 -17.91 6.41 -31.90 14.08 -47.10 9.70 -19.23 23.61 -35.82 41.17 -49.10 21.55 -16.25 46.12 -25.58 73.97 -28.01 6.52 -0.57 23.09 -0.40 29.13 0.29 15.57 1.80 29.36 5.55 43.84 11.96 19.34 8.53 38.06 23.12 51.99 40.49 17.23 21.52 27.90 48.10 30.10 75.14 0.74 9.01 0.26 23.32 -1.12 31.76 -2.43 15.11 -6.15 26.75 -13.02 40.69 -4.64 9.41 -9.53 17.05 -16.05 25.18 -4.46 5.52 -4.81 5.87 -5.84 5.87 -0.80 0 -0.86 -0.09 -0.86 -1.06z m14.45 -43.61 l1.75 -4.15 -1.89 -0.80 c-1.03 -0.43 -4.69 -1.95 -8.15 -3.35 -5.78 -2.35 -6.32 -2.52 -6.64 -2.06 -0.20 0.26 -0.37 0.63 -0.37 0.80 0 0.20 1.52 0.97 3.38 1.77 3.98 1.69 4.03 1.77 2.60 5.29 -0.89 2.23 -0.92 2.32 -0.40 2.69 0.29 0.23 0.63 0.40 0.72 0.40 0.09 0 0.69 -1.23 1.32 -2.75 l1.12 -2.75 1.29 0.14 c0.72 0.06 1.89 0.40 2.66 0.72 1.26 0.57 1.34 0.69 1.34 1.63 0 0.57 -0.49 2.15 -1.06 3.49 -1 2.37 -1.03 2.46 -0.52 2.83 0.31 0.23 0.69 0.37 0.83 0.31 0.17 -0.06 1.09 -1.97 2.03 -4.23z m-238.69 0.57 c0.34 -0.20 0.66 -0.37 0.72 -0.40 0.03 -0.03 -0.20 -0.66 -0.52 -1.40 -0.31 -0.74 -0.57 -1.77 -0.57 -2.26 l0 -0.92 7.27 -2.69 7.24 -2.69 -0.31 -0.80 c-0.17 -0.46 -0.40 -0.83 -0.52 -0.83 -0.11 0 -3.15 1.09 -6.70 2.43 -3.58 1.34 -6.92 2.43 -7.41 2.43 -0.89 0 -0.97 -0.11 -1.57 -1.72 -0.34 -0.94 -0.72 -1.72 -0.83 -1.72 -0.63 0.03 -1.46 0.40 -1.46 0.69 0 0.52 3.69 10.19 3.89 10.19 0.09 0 0.43 -0.14 0.77 -0.31z m240.87 -17.02 c2.98 -0.89 5.81 -4.81 5.21 -7.24 -0.74 -3.20 -3.69 -5.58 -8.38 -6.78 -3.29 -0.83 -6.55 0.06 -8.58 2.40 -1.26 1.40 -2.09 3.69 -1.80 4.89 0.74 3.12 3.81 5.72 7.98 6.72 2.26 0.54 3.72 0.54 5.58 0z m-243.67 -4.01 c2.20 -0.40 5.95 -1.14 8.30 -1.66 l4.29 -0.89 -0.09 -0.86 c-0.06 -0.46 -0.17 -0.92 -0.20 -0.97 -0.06 -0.06 -1.60 0.17 -3.43 0.52 -4.84 0.94 -4.75 0.97 -5.35 -1.97 -0.26 -1.34 -0.49 -2.83 -0.52 -3.32 l0 -0.89 3.66 -0.63 c4.75 -0.86 4.46 -0.72 4.23 -1.80 -0.09 -0.49 -0.20 -0.94 -0.26 -0.97 -0.06 -0.06 -2.78 0.40 -6.07 1 -3.32 0.60 -7.27 1.32 -8.84 1.60 l-2.80 0.49 0.17 0.89 c0.09 0.49 0.23 0.92 0.29 0.97 0.06 0.06 1.43 -0.17 3.06 -0.49 3.83 -0.74 4.21 -0.74 4.41 0.09 0.06 0.34 0.31 1.52 0.57 2.58 0.23 1.09 0.43 2.37 0.43 2.89 l0 0.94 -3.20 0.63 c-1.77 0.34 -3.38 0.69 -3.55 0.74 -0.52 0.14 -0.11 1.86 0.43 1.86 0.26 0 2.26 -0.34 4.46 -0.74z m10.16 -27.30 l0 -5.44 -1.14 0 -1.14 0 0 4.29 0 4.29 -3.15 0 -3.15 0 0 -3.72 0 -3.72 -1 0 -0.97 0 -0.09 3.66 -0.09 3.63 -2.78 0.09 -2.80 0.09 0 -4.18 0 -4.15 -1.14 0 -1.14 0 0 5.29 0 5.29 9.30 0 9.30 0 0 -5.44z m241.12 -4.41 c-0.11 -0.94 -0.26 -3.52 -0.37 -5.67 l-0.20 -3.95 -1.09 0 -1.12 0 0 2.37 0 2.37 -6.64 0.34 c-3.66 0.20 -7.15 0.43 -7.73 0.52 -1.03 0.14 -1.09 0.23 -1.09 1.20 l0 1.06 5.78 -0.34 c3.20 -0.17 6.81 -0.34 8.04 -0.34 l2.20 -0.03 0 2.09 c0 1.17 0.06 2.17 0.14 2.23 0.06 0.09 0.60 0.09 1.17 0.03 l1.06 -0.11 -0.17 -1.77z m-10.84 -17.83 l8.41 -1.92 -0.17 -0.86 c-0.11 -0.46 -0.20 -0.89 -0.26 -0.92 -0.06 -0.06 -2.72 0.60 -8.78 2.17 -0.54 0.14 -1.34 0.29 -1.77 0.29 -0.72 0 -0.80 -0.11 -0.80 -0.97 0 -0.89 0.26 -1.20 2.66 -3.23 1.43 -1.23 3.58 -3 4.72 -3.95 1.95 -1.55 2.09 -1.75 1.95 -2.55 -0.11 -0.46 -0.23 -0.89 -0.26 -0.92 -0.09 -0.09 -15.79 3.43 -16.88 3.78 -0.37 0.11 -0.43 0.34 -0.31 0.92 0.11 0.43 0.23 0.83 0.29 0.86 0.03 0.06 1.95 -0.34 4.26 -0.92 2.32 -0.57 4.75 -1.03 5.47 -1.03 1.23 0 1.26 0.03 1.26 0.94 0 0.86 -0.34 1.20 -4.66 4.64 l-4.69 3.69 0.29 0.94 c0.17 0.52 0.43 0.94 0.60 0.94 0.17 0 4.09 -0.86 8.70 -1.92z m-229.71 -3.46 c1 -0.49 1.92 -1.23 2.49 -2 1.95 -2.60 1.80 -4.66 -0.49 -6.95 -1.55 -1.55 -1.89 -1.69 -2.15 -0.83 -0.14 0.43 0.09 0.92 0.83 1.72 0.86 0.97 1.03 1.34 1.03 2.46 0 1.66 -0.63 3 -1.69 3.63 -1.23 0.72 -5.52 0.66 -7.78 -0.09 -3.66 -1.26 -5.01 -2.80 -4.78 -5.61 0.17 -1.86 0.97 -2.86 2.49 -3.15 1.20 -0.23 1.46 -0.52 1.46 -1.63 0 -0.89 -0.06 -0.89 -2.49 -0.03 -1.97 0.72 -3.81 3.29 -3.81 5.32 0 2.06 2.32 4.95 5.06 6.32 4.06 2.03 6.87 2.26 9.81 0.83z m216.14 -13.68 c0.66 -0.26 0.60 -0.60 -0.86 -3.69 -0.92 -1.97 -1.26 -3.06 -1.20 -3.78 0.09 -0.94 0.20 -1.03 2.03 -1.83 1.09 -0.46 2.37 -0.83 2.89 -0.83 0.86 0 0.94 0.11 2.29 3.15 0.74 1.75 1.46 3.15 1.57 3.15 0.09 -0.03 0.46 -0.17 0.77 -0.37 0.60 -0.34 0.60 -0.37 -0.63 -3.06 -0.69 -1.49 -1.26 -3.12 -1.26 -3.61 0 -0.83 0.14 -0.97 1.69 -1.66 0.92 -0.40 2.06 -0.74 2.55 -0.74 0.86 0 0.97 0.14 2.52 3.43 0.89 1.89 1.72 3.43 1.86 3.43 0.46 0 1.12 -0.37 1.12 -0.63 0 -0.20 -3.86 -8.58 -4.15 -9.04 -0.06 -0.09 -15.68 6.81 -15.94 7.07 -0.11 0.09 0.52 1.77 1.37 3.75 0.86 1.97 1.77 4.01 1.97 4.52 0.40 0.94 0.60 1.06 1.40 0.74z m-209.51 -5.44 c2.66 -0.89 5.09 -3.95 5.09 -6.41 0 -2.60 -2.72 -5.84 -6.32 -7.58 -2.98 -1.43 -4.72 -1.72 -6.70 -1.14 -2.80 0.80 -5.29 3.86 -5.29 6.44 0.03 3.20 3.61 6.81 8.36 8.41 2.46 0.86 3.12 0.89 4.86 0.29z m207.39 -16.11 c1.66 -1.17 3.98 -2.86 5.18 -3.75 l2.17 -1.60 -0.83 -1.20 c-0.46 -0.66 -0.97 -1.20 -1.12 -1.20 -0.17 0 -2.43 0.92 -5.04 2 -2.60 1.12 -5.12 2 -5.55 2 -0.77 0 -0.83 -0.09 -0.83 -1.09 0 -0.89 0.20 -1.29 1.17 -2.20 0.63 -0.63 2.32 -2.40 3.75 -3.92 l2.58 -2.78 -0.83 -1.17 c-0.43 -0.63 -0.89 -1.14 -1 -1.14 -0.23 0 -10.36 6.50 -12.76 8.21 -1.57 1.12 -1.75 1.34 -1.43 1.75 0.20 0.29 0.37 0.52 0.37 0.54 0.03 0.06 1.63 -1 3.58 -2.35 3.09 -2.12 3.69 -2.43 4.78 -2.43 1.17 0 1.23 0.03 1.23 0.89 0 0.74 -0.54 1.46 -3.29 4.32 -1.80 1.89 -3.29 3.52 -3.29 3.63 0 0.09 0.20 0.43 0.43 0.72 0.46 0.63 0.20 0.69 5.06 -1.43 1.55 -0.69 2.63 -0.97 3.66 -0.97 1.43 0 1.43 0 1.43 0.94 0 0.89 -0.23 1.12 -3.43 3.35 -1.89 1.34 -3.43 2.58 -3.43 2.75 0 0.14 0.14 0.43 0.31 0.60 0.34 0.34 0.40 0.31 7.12 -4.46z m-194.06 -3.06 c1.83 -1.20 3.18 -3.46 3.20 -5.32 0 -1.95 -1.92 -3.81 -9.73 -9.44 -2.52 -1.83 -2.72 -1.92 -3.20 -1.46 -0.29 0.26 -0.52 0.54 -0.52 0.66 0 0.14 1.95 1.63 4.35 3.32 2.40 1.72 4.89 3.63 5.58 4.29 1.20 1.12 1.23 1.20 1.23 2.95 0 1.60 -0.09 1.89 -0.83 2.63 -0.77 0.74 -1.03 0.83 -2.69 0.83 l-1.86 0 -3.52 -2.49 c-1.95 -1.34 -4.38 -3.09 -5.41 -3.83 -1.66 -1.20 -1.89 -1.29 -2.20 -0.86 -0.20 0.26 -0.37 0.60 -0.37 0.77 0 0.29 7.70 5.95 10.44 7.70 2.03 1.29 3.83 1.37 5.52 0.26z m179.46 -16.40 c4.86 -4.69 5.95 -5.89 5.69 -6.21 -0.17 -0.23 -0.46 -0.40 -0.60 -0.40 -0.14 0 -1.89 1.60 -3.92 3.58 -3.18 3.09 -3.78 3.58 -4.61 3.58 -0.92 0 -0.92 0 -0.80 -1.20 0.09 -0.69 0.97 -3.58 1.97 -6.44 l1.80 -5.21 -0.66 -0.72 -0.69 -0.72 -6.18 6.12 c-5.89 5.84 -6.15 6.15 -5.67 6.64 0.46 0.49 0.66 0.34 3.86 -2.86 2.89 -2.89 3.49 -3.35 4.29 -3.35 0.86 0 0.92 0.06 0.92 1.09 0 0.57 -0.72 3.23 -1.57 5.92 l-1.55 4.86 0.60 0.66 c0.34 0.34 0.72 0.60 0.86 0.57 0.11 -0.06 2.92 -2.72 6.24 -5.92z m-167.67 2.55 c0 -0.14 -1.49 -1.80 -3.29 -3.66 -2.98 -3.09 -3.29 -3.52 -3.29 -4.46 0 -1 0.03 -1.03 1.09 -1.03 0.60 0.03 3.29 0.86 6.21 1.97 l5.15 1.97 0.69 -0.66 0.69 -0.66 -0.63 -0.83 c-0.37 -0.43 -2.98 -3.35 -5.84 -6.44 -5.12 -5.52 -5.21 -5.64 -5.75 -5.09 -0.54 0.52 -0.49 0.60 2.92 4.23 2.95 3.12 3.49 3.83 3.49 4.61 0 0.80 -0.09 0.89 -0.92 0.89 -0.52 0 -3.38 -0.92 -6.38 -2 l-5.44 -1.97 -0.77 0.77 -0.77 0.77 5.87 6.21 c5.15 5.44 5.95 6.18 6.44 5.95 0.29 -0.17 0.54 -0.43 0.54 -0.57z m147.93 -14.13 l0.37 -3.61 1.52 0.03 c1.83 0.06 3.38 -0.83 4.38 -2.43 1.34 -2.17 1.06 -3.75 -1.09 -5.69 -1.32 -1.17 -5.98 -4.35 -6.15 -4.18 -0.11 0.11 -1.40 1.97 -6.81 9.70 -2.80 4.01 -3.06 4.46 -2.60 4.78 0.26 0.20 0.63 0.37 0.80 0.37 0.17 0 1.14 -1.23 2.17 -2.72 1.72 -2.55 1.89 -2.72 2.83 -2.72 0.66 0.03 1.29 0.26 1.83 0.74 l0.83 0.74 -0.17 2.89 c-0.11 1.60 -0.29 3.58 -0.37 4.41 -0.20 1.46 -0.17 1.49 0.77 2.06 l0.97 0.60 0.17 -0.72 c0.11 -0.37 0.37 -2.29 0.54 -4.26z m-129.22 -0.31 c0.60 -0.46 0.94 0.14 -4.18 -7.73 -2.40 -3.63 -2.80 -4.44 -2.80 -5.44 0.03 -1.06 0.11 -1.20 1.46 -2.03 1.43 -0.86 1.43 -0.86 0.92 -1.49 l-0.52 -0.60 -4.64 2.86 c-4.64 2.86 -4.64 2.89 -4.21 3.55 l0.46 0.69 1.34 -0.86 c0.77 -0.46 1.77 -0.83 2.26 -0.83 0.77 0 1.03 0.23 1.86 1.52 3.81 5.89 7.12 10.79 7.30 10.79 0.11 0 0.43 -0.20 0.74 -0.43z m111.11 -6.24 c0.29 -0.63 0.17 -0.72 -3.32 -2.26 -3.55 -1.55 -3.61 -1.60 -3.69 -2.55 -0.06 -0.66 0.23 -1.66 0.80 -2.92 0.89 -1.83 0.94 -1.92 1.92 -1.92 0.57 0 2.15 0.52 3.55 1.14 1.40 0.63 2.66 1.14 2.80 1.14 0.29 0 0.74 -1.12 0.54 -1.29 -0.03 -0.03 -1.43 -0.66 -3.09 -1.37 -2.86 -1.26 -3 -1.34 -3.09 -2.26 -0.06 -0.57 0.20 -1.52 0.69 -2.58 0.72 -1.49 0.89 -1.66 1.66 -1.66 0.49 0 2.29 0.60 4.01 1.34 2.98 1.29 3.12 1.32 3.49 0.80 0.23 -0.29 0.40 -0.63 0.40 -0.72 0 -0.17 -8.93 -4.01 -9.36 -4.01 -0.14 0 -1.26 2.15 -2.49 4.81 -3.66 7.84 -4.84 10.67 -4.58 10.93 0.31 0.29 8.70 3.95 9.16 3.98 0.17 0.03 0.46 -0.26 0.60 -0.63z m-94.82 -2.23 c0.34 -0.20 0.66 -0.37 0.69 -0.40 0.06 -0.03 -0.52 -1.37 -1.23 -3.03 l-1.32 -2.98 0.34 -5.67 c0.20 -3.12 0.29 -5.72 0.20 -5.81 -0.09 -0.09 -0.63 -0.03 -1.17 0.17 l-1 0.31 -0.09 3.78 -0.09 3.78 -1 0.09 c-0.89 0.06 -1.32 -0.20 -3.58 -2.09 -1.40 -1.17 -2.72 -2.15 -2.89 -2.15 -0.14 0 -0.52 0.17 -0.80 0.37 -0.46 0.34 -0.11 0.72 3.69 3.75 l4.21 3.38 1.29 2.78 c0.72 1.52 1.40 3.03 1.55 3.40 0.29 0.72 0.37 0.74 1.20 0.31z m77.20 -12.70 c2.52 -4.21 4.52 -7.70 4.46 -7.75 -0.06 -0.06 -0.49 -0.17 -0.94 -0.26 -0.83 -0.17 -0.86 -0.11 -3.46 4.64 -1.43 2.63 -2.80 5.24 -3.06 5.75 -0.40 0.74 -0.63 0.92 -1.43 0.92 l-0.94 0 -0.20 -6.78 c-0.11 -3.75 -0.29 -6.90 -0.40 -6.98 -0.11 -0.11 -0.63 -0.26 -1.12 -0.34 l-0.94 -0.17 0 2.32 c0 2.66 0.52 12.96 0.74 14.71 0.14 1.12 0.20 1.20 1.34 1.46 0.66 0.14 1.23 0.23 1.29 0.20 0.06 -0.03 2.15 -3.49 4.66 -7.70z m-45.04 4.81 c0.80 -0.40 2 -1.29 2.66 -1.95 l1.20 -1.23 -0.52 -3.06 c-0.46 -2.83 -0.54 -3.03 -1.09 -2.89 -0.34 0.06 -1.40 0.23 -2.35 0.34 -2.17 0.23 -2.37 0.34 -2.20 1.29 0.14 0.74 0.17 0.77 1.83 0.63 l1.72 -0.17 -0.09 2.23 c-0.09 2.06 -0.14 2.26 -0.89 2.83 -0.60 0.43 -1.34 0.63 -2.89 0.69 -2.78 0.14 -3.61 -0.29 -4.66 -2.43 -0.72 -1.52 -0.80 -2 -0.89 -5.26 -0.09 -2.95 -0.03 -3.78 0.37 -4.52 0.72 -1.40 1.97 -2.03 4.12 -2.03 1.69 0 1.86 0.06 2.80 1 0.77 0.77 1.14 0.97 1.69 0.83 0.83 -0.20 0.86 -0.66 0.11 -1.63 -1.49 -1.89 -3.86 -2.66 -6.15 -2 -2 0.57 -3.63 1.97 -4.64 4.03 -0.69 1.37 -0.80 1.97 -0.80 3.92 0 4.06 1.69 7.64 4.29 9.18 2.43 1.43 3.78 1.46 6.35 0.20z m22.09 -0.49 c2.55 -1.29 4.01 -3.55 4.61 -7.12 0.60 -3.40 -0.23 -6.47 -2.29 -8.50 -2.46 -2.49 -5.49 -2.89 -8.21 -1.06 -4.32 2.92 -5.12 11.16 -1.43 15.05 1.17 1.20 3.46 2.32 4.86 2.32 0.60 0 1.69 -0.31 2.46 -0.69z"/>
  <path d="M261.93 171.28 c-1.80 -0.57 -3.40 -1.57 -3.92 -2.46 -0.60 -1 -0.66 -4.01 -0.06 -5.12 0.72 -1.43 2.09 -1.83 5.55 -1.69 3.66 0.17 5.87 0.92 7.15 2.40 0.83 0.92 0.89 1.17 0.89 3.06 0 2.29 -0.34 3.06 -1.72 3.78 -1.06 0.54 -6.21 0.54 -7.90 0.03z"/>
  <path d="M37.83 95.40 c-0.83 -0.20 -1.89 -0.60 -2.37 -0.83 -1.34 -0.72 -3.18 -2.49 -3.61 -3.49 -0.57 -1.37 -0.49 -3.78 0.20 -4.86 0.80 -1.34 1.57 -1.63 4.18 -1.63 2 0.03 2.60 0.17 4.38 0.97 3.61 1.66 5.01 3.92 4.46 7.12 -0.46 2.72 -3.29 3.78 -7.24 2.72z"/>
  <path d="M213.80 43.92 c-1.37 -0.94 -1.49 -1.12 -1.49 -2.15 0 -0.80 0.29 -1.52 1.09 -2.69 0.94 -1.43 1.17 -1.57 2.09 -1.60 0.74 0 1.46 0.31 2.63 1.14 0.89 0.66 1.75 1.40 1.92 1.72 0.69 1.26 0.06 3.98 -1 4.41 -0.26 0.09 -1.20 0.17 -2.09 0.17 -1.40 0 -1.86 -0.14 -3.15 -1z"/>
  <path d="M152.39 31.76 c-2.20 -0.72 -2.89 -2.35 -2.86 -6.87 0.03 -5.49 1.20 -7.15 4.98 -7.15 1.95 0 2.12 0.06 3 0.94 1.17 1.17 1.57 2.55 1.57 5.41 0 3.81 -0.83 6.44 -2.32 7.32 -0.77 0.49 -3.29 0.69 -4.38 0.34z"/>
  <path d="M138.20 230.59 c-13.99 -1.26 -26.98 -5.84 -38.60 -13.56 -2.83 -1.89 -3.03 -2.09 -3.12 -3.06 -0.09 -0.97 0 -1.12 1.72 -2.32 4.58 -3.26 12.19 -7.41 18.54 -10.10 5.49 -2.32 12.05 -4.41 19.77 -6.27 14.45 -3.52 19.43 -5.09 22.80 -7.27 4.98 -3.23 4.64 -6.44 -1.34 -12.33 -3.40 -3.38 -6.64 -5.75 -11.99 -8.81 -6.32 -3.58 -11.30 -5.44 -21.66 -8.04 -2.52 -0.63 -8.04 -2.26 -12.30 -3.61 -14.48 -4.61 -17.17 -5.15 -24.49 -5.06 -8.18 0.09 -10.84 0.69 -27.18 6.18 -7.41 2.49 -9.47 2.92 -9.81 2 -0.09 -0.26 -0.17 -1.20 -0.17 -2.12 0 -1.69 0 -1.69 0.94 -1.83 7.27 -1.12 7.87 -1.29 17.37 -4.81 6.35 -2.35 10.44 -3.55 15.17 -4.44 4.23 -0.80 17.57 -0.72 23.03 0.14 5.41 0.86 10.39 2.15 18.80 4.89 7.78 2.55 12.22 3.55 17.77 4.09 6.38 0.60 14.31 -0.46 21.98 -2.92 2 -0.63 3.92 -1.14 4.29 -1.14 0.34 0 0.86 -0.17 1.09 -0.37 0.49 -0.40 5.81 -2.09 9.64 -3.03 5.64 -1.43 9.39 -1.86 16.14 -1.86 10.84 -0.03 15.14 0.89 31.90 6.70 4.81 1.66 8.07 2.43 11.42 2.75 l2.26 0.20 -0.20 2.32 c-0.11 1.26 -0.31 2.43 -0.46 2.58 -0.11 0.11 -3.12 0.17 -6.64 0.09 -5.61 -0.11 -6.72 -0.23 -9.24 -0.86 -3.66 -0.94 -6.78 -2.03 -11.53 -4.03 -4.44 -1.86 -8.18 -3.09 -12.36 -4.09 -2.58 -0.63 -3.89 -0.74 -9.36 -0.86 -11.76 -0.29 -17.25 0.94 -30.85 6.90 -4.58 2 -8.50 3.26 -10.96 3.52 l-1.49 0.17 6.64 2.12 c10.73 3.43 16.40 5.61 22.40 8.53 4.78 2.32 6.95 3.78 9.47 6.27 2.80 2.80 3.38 4.32 3.20 8.47 -0.11 2.60 -0.26 3.32 -1.09 5.26 -2 4.78 -5.92 9.39 -10.70 12.59 -2.80 1.89 -7.87 4.49 -14.65 7.55 -4.38 1.97 -6.98 3.63 -6.98 4.46 0 0.69 1.60 1.89 3.55 2.60 2.26 0.86 9.18 2.69 13.48 3.58 1.57 0.31 3.15 0.66 3.52 0.74 0.49 0.09 0.63 0.31 0.63 1.09 0 0.97 -0.06 1 -2.35 1.92 -5.38 2.09 -12.28 3.81 -18.83 4.72 -3.72 0.52 -15.11 0.74 -19.17 0.37z"/>
  <path d="M232.63 226.42 c-1.37 -0.72 -1.77 -1.60 -1.63 -3.63 0.09 -1.46 0.23 -1.80 1 -2.49 0.77 -0.72 1.17 -0.83 2.52 -0.83 2.83 0 3.83 1 3.83 3.86 0 1.32 -0.14 1.72 -0.77 2.43 -1.03 1.14 -3.40 1.46 -4.95 0.66z"/>
  <path d="M54.62 225.79 c-0.74 -0.77 -0.83 -1 -0.83 -2.83 0 -1.89 0.06 -2.06 0.89 -2.75 0.74 -0.63 1.14 -0.74 2.75 -0.74 1.66 0 1.95 0.09 2.66 0.80 1.52 1.52 1.49 4.35 -0.03 5.61 -0.74 0.63 -1.14 0.74 -2.75 0.74 -1.66 0 -1.92 -0.09 -2.69 -0.83z"/>
  <path d="M70.39 126.18 c-0.49 -0.31 -16.20 -7.55 -16.94 -7.81 -0.66 -0.23 -0.63 -1.57 0.03 -3.49 0.52 -1.43 0.52 -1.43 1.89 -1.52 1.06 -0.06 3.86 0.60 12.28 2.95 6.01 1.69 11.07 3.09 11.27 3.18 0.43 0.11 0.49 2.12 0.06 2.12 -0.17 0 -1.66 1.09 -3.32 2.43 -2.40 1.92 -3.23 2.43 -3.95 2.40 -0.49 0 -1.09 -0.11 -1.32 -0.26z"/>
  <path d="M220.24 123.67 c-2.37 -2.37 -2.78 -2.92 -2.78 -3.72 0 -0.52 0.17 -1 0.37 -1.06 2.49 -0.83 12.56 -4.61 13.22 -4.92 1.97 -0.97 4.81 -1.83 5.75 -1.75 l1.03 0.09 0.97 3 c1.03 3.29 1.29 6.01 0.54 6.01 -0.74 0 -13.73 4.35 -14.19 4.75 -0.23 0.23 -0.83 0.40 -1.29 0.40 -0.69 0 -1.37 -0.52 -3.63 -2.80z"/>
  <path d="M101.75 112.56 c-5.81 -3.20 -6.64 -3.58 -7.24 -3.29 -1.60 0.74 -2.03 0.49 -7.10 -4.01 -11.33 -10.10 -18.86 -16.57 -19.20 -16.57 -0.83 0 -0.46 -1.89 0.69 -3.35 2.20 -2.92 2.23 -2.95 3.26 -2.95 1.06 0 2.29 0.89 28.10 20.26 6.41 4.84 11.85 8.81 12.07 8.87 0.23 0.06 0.40 0.46 0.40 1.03 0 1.26 -2.35 3.61 -3.58 3.58 -0.54 0 -3.35 -1.37 -7.41 -3.58z"/>
  <path d="M115.60 106.93 c-0.40 -0.83 -3.15 -6.12 -6.12 -11.79 -6.41 -12.19 -13.79 -26.52 -14.88 -28.81 -0.49 -1.03 -0.74 -2 -0.69 -2.58 0.09 -0.80 0.34 -1.06 1.95 -2 1.43 -0.83 2.17 -1.09 3.23 -1.09 1.23 0 1.34 0.06 1.34 0.69 0 0.77 4.95 8.73 19.94 32.02 2.89 4.49 4.38 7.10 4.38 7.58 0 0.60 -0.74 1.52 -3.38 4.15 -2.80 2.80 -3.49 3.35 -4.21 3.32 -0.74 0 -0.94 -0.20 -1.57 -1.49z"/>
  <path d="M200.92 104.92 c-3.43 -3.46 -3.46 -3.38 2.37 -7.58 4.35 -3.12 11.30 -8.27 14.25 -10.50 0.74 -0.57 1.34 -1.17 1.34 -1.32 0 -0.43 -7.70 -8.04 -10.30 -10.19 -1.34 -1.09 -3.83 -3 -5.55 -4.26 -2.52 -1.80 -3.18 -2.17 -3.38 -1.83 -1.66 2.86 -11.85 19.80 -14.51 24.12 -1.89 3.12 -3.46 5.78 -3.49 5.87 0 0.11 -0.66 0.74 -1.49 1.43 -1.20 0.97 -1.66 1.20 -2.60 1.20 -1.03 -0.03 -1.40 -0.23 -2.95 -1.69 -2.32 -2.17 -2.35 -2.69 -0.34 -5.87 1.66 -2.58 10.39 -16.48 15.19 -24.15 1.69 -2.72 3.09 -5.06 3.09 -5.21 0 -0.40 -5.26 -2.95 -9.87 -4.81 -4.46 -1.77 -7.87 -2.92 -12.36 -4.15 l-2.66 -0.74 -0.14 0.63 c-0.40 1.72 -5.01 30.10 -5.01 30.85 0 0.74 -0.09 0.83 -0.97 0.83 -0.83 0 -1.43 -0.40 -4.01 -2.78 -2.78 -2.52 -3.03 -2.83 -3.03 -3.78 0 -0.57 1.60 -6.81 3.52 -13.91 3 -10.96 3.46 -12.90 3.09 -13.05 -0.26 -0.09 -2.20 -0.40 -4.32 -0.69 -4.41 -0.60 -14.45 -0.74 -19.46 -0.29 l-3 0.29 0.09 1 c0.06 0.54 1.43 7.75 3.09 16.02 1.63 8.27 2.98 15.22 2.98 15.48 0 0.23 -1.52 1.95 -3.38 3.78 -3.09 3.03 -3.49 3.35 -4.44 3.35 -1.03 0 -1.06 -0.03 -1.06 -1 0 -0.54 -0.31 -3.66 -0.72 -6.92 -1.66 -13.79 -3.58 -31.62 -3.58 -33.22 0 -1.40 0.09 -1.77 0.52 -1.89 1.57 -0.49 10.44 -1.37 15.37 -1.52 13.56 -0.37 27.13 1.92 39.31 6.67 4.06 1.60 11.82 5.47 15.48 7.70 9.99 6.15 19.60 15.02 26.72 24.58 1.55 2.09 1.89 2.75 1.89 3.63 0 0.86 -0.11 1.09 -0.66 1.23 -0.37 0.09 -1.49 0.77 -2.52 1.55 -1 0.77 -5.61 4.12 -10.21 7.44 -6.01 4.35 -8.61 6.07 -9.16 6.07 -0.60 0 -1.34 -0.57 -3.15 -2.37z"/>
 </g>
 <g fill="#fef498">
  <path d="M90.59 67.47 c-0.49 -1.86 -0.14 -2.49 1.92 -3.63 1.23 -0.69 3.06 -0.86 2.52 -0.23 -0.23 0.29 -0.17 0.66 0.26 1.49 0.31 0.60 0.54 1.14 0.49 1.17 -0.03 0.03 -0.74 0.46 -1.57 0.94 -1.86 1.09 -3.35 1.20 -3.61 0.26z"/>
  <path d="M99.72 63.12 c-0.29 -0.40 -0.43 -0.94 -0.31 -1.17 0.11 -0.29 -0.03 -0.43 -0.40 -0.43 -0.31 0 -0.57 -0.11 -0.57 -0.23 0 -0.57 1.60 -1.57 6.01 -3.72 7.15 -3.46 17.60 -6.81 22.32 -7.10 2.15 -0.14 2.37 -0.11 1.92 0.26 -0.34 0.29 -0.49 0.77 -0.46 1.75 0.03 0.72 0 1.37 -0.06 1.43 -0.06 0.06 -2.03 0.60 -4.41 1.17 -6.27 1.55 -13.05 3.89 -18.28 6.32 -2.52 1.20 -4.75 2.23 -4.95 2.29 -0.17 0.09 -0.54 -0.17 -0.80 -0.57z"/>
 </g>
 <g fill="#f4cb1f">
  <path d="M232.05 135.17 c-7.44 -7.18 -8.73 -8.58 -8.81 -9.36 -0.09 -0.74 -0.03 -0.86 0.26 -0.57 0.29 0.29 0.46 0.29 0.80 -0.03 0.46 -0.40 13.45 -4.75 14.19 -4.75 0.23 0 0.43 -0.26 0.43 -0.57 0 -0.37 0.20 -0.57 0.52 -0.57 0.43 0 0.66 0.52 1.17 2.72 1.43 6.27 2.32 13.56 2.32 19.06 l0 2.55 -1.06 -0.03 c-1.03 0 -1.60 -0.49 -9.81 -8.44z"/>
  <path d="M49.33 139.43 c0.37 -6.87 1.60 -15.31 3.03 -20.66 0.52 -1.92 0.74 -2.32 1.20 -2.32 0.40 0 0.52 0.14 0.40 0.43 -0.09 0.29 0.03 0.52 0.34 0.63 0.26 0.09 3.92 1.77 8.13 3.72 8.87 4.09 9.13 4.21 9.61 4.12 0.20 -0.03 0.34 0.26 0.34 0.66 0 0.49 -0.34 1 -1.06 1.57 -2.80 2.26 -5.67 4.49 -6.21 4.89 -0.31 0.23 -1.37 1.06 -2.32 1.86 -0.94 0.80 -2.03 1.66 -2.43 1.92 -0.40 0.23 -2.58 1.95 -4.86 3.78 -3.66 2.92 -4.26 3.32 -5.26 3.32 l-1.12 0 0.20 -3.92z"/>
  <path d="M77.26 121.18 c0 -0.09 0.29 -0.29 0.66 -0.40 0.46 -0.20 0.52 -0.29 0.20 -0.40 -1.72 -0.57 -22.29 -6.21 -22.69 -6.21 -0.29 0 -0.57 0.20 -0.66 0.43 -0.31 0.77 -0.69 0.46 -0.69 -0.57 0 -2.09 3.86 -11.25 7.18 -17.11 0.83 -1.46 2.58 -4.26 3.89 -6.27 2.03 -3.18 2.46 -3.66 3.12 -3.66 0.54 0 0.72 0.11 0.57 0.43 -0.09 0.26 0 0.43 0.23 0.43 0.37 0 6.15 4.98 18.28 15.74 3.12 2.75 5.84 4.98 6.07 4.92 0.29 -0.06 0.43 0.14 0.43 0.57 -0.03 0.49 -0.74 1.23 -2.78 2.80 -8.38 6.52 -9.76 7.61 -10.67 8.47 -0.80 0.74 -1.29 0.97 -2.09 0.97 -0.57 0 -1.06 -0.06 -1.06 -0.14z"/>
  <path d="M210.34 114.11 c-5.92 -5.75 -6.90 -6.78 -6.90 -7.50 0 -0.63 0.09 -0.77 0.31 -0.54 0.23 0.23 2.60 -1.34 8.64 -5.72 4.61 -3.29 9.18 -6.64 10.19 -7.41 1.03 -0.77 2.15 -1.46 2.52 -1.57 0.43 -0.09 0.63 -0.31 0.54 -0.54 -0.11 -0.29 0.06 -0.40 0.54 -0.40 0.77 0 1.72 1.29 4.49 6.15 4.06 7.10 8.13 17.31 6.92 17.31 -0.11 0 -0.34 -0.20 -0.54 -0.46 -0.29 -0.43 -0.52 -0.40 -2.32 0.26 -1.09 0.40 -2.35 0.92 -2.83 1.14 -0.66 0.31 -10.44 3.98 -13.28 4.95 -0.31 0.09 -0.31 0.20 -0.03 0.54 0.31 0.37 0.23 0.43 -0.52 0.43 -0.74 0 -1.83 -0.92 -7.75 -6.64z"/>
  <path d="M111.53 112.97 c0.23 -0.23 0.11 -0.43 -0.49 -0.77 -0.43 -0.26 -5.87 -4.29 -12.07 -8.96 -14.94 -11.25 -26.64 -19.97 -26.81 -19.97 -0.09 0 -0.31 0.23 -0.52 0.52 -0.34 0.43 -0.37 0.37 -0.40 -0.52 0 -0.89 0.34 -1.37 2.66 -3.89 4.18 -4.46 7.95 -7.93 12.48 -11.30 3.43 -2.58 4.32 -3.12 5.15 -3.12 l0.97 0 -0.69 0.77 c-0.37 0.40 -0.52 0.66 -0.29 0.52 0.29 -0.17 0.34 -0.06 0.17 0.40 -0.23 0.77 -0.17 0.77 1.57 -0.26 0.80 -0.49 1.60 -0.86 1.80 -0.86 0.20 0 2.26 3.69 4.58 8.24 3.63 7.07 10.50 20.29 15.99 30.70 1.17 2.20 1.69 2.98 1.92 2.75 0.23 -0.23 0.31 -0.09 0.31 0.54 0 0.72 -0.43 1.26 -2.55 3.20 -1.92 1.77 -2.75 2.35 -3.35 2.35 -0.60 0 -0.72 -0.09 -0.46 -0.34z"/>
  <path d="M193.63 97.89 l-4.64 -4.55 -1.43 1.29 c-3.26 2.92 -5.81 4.66 -6.78 4.66 -0.86 -0.03 -0.89 -0.06 -0.43 -0.40 0.26 -0.20 0.49 -0.46 0.49 -0.54 0 -0.09 1.57 -2.72 3.46 -5.84 1.92 -3.12 5.87 -9.64 8.78 -14.54 2.92 -4.89 5.47 -9.16 5.69 -9.50 0.23 -0.40 0.66 -0.66 1.06 -0.66 0.74 0 5.61 3.38 9.61 6.67 3.03 2.49 11.22 10.76 11.07 11.19 -0.20 0.60 -3.26 2.98 -12.42 9.64 -2.63 1.92 -5.67 4.15 -6.75 4.92 -1.55 1.14 -1.86 1.49 -1.60 1.80 0.26 0.31 0.17 0.40 -0.60 0.40 -0.77 0 -1.49 -0.60 -5.52 -4.55z"/>
  <path d="M123.52 101.26 c0.23 -0.23 -0.63 -1.77 -3.12 -5.64 -5.26 -8.15 -13.08 -20.43 -17.14 -26.90 l-3.66 -5.78 1.63 -0.83 c3.83 -1.95 8.47 -3.86 12.48 -5.24 4.18 -1.40 14.19 -4.06 14.42 -3.81 0.06 0.06 0.74 5.67 1.49 12.50 0.77 6.81 1.72 15.17 2.12 18.54 0.40 3.38 0.77 6.55 0.80 7.07 0.06 0.77 0.14 0.86 0.57 0.63 0.43 -0.23 0.52 -0.17 0.52 0.34 0 0.46 -1.37 2.03 -4.35 5.04 -3.69 3.69 -4.49 4.38 -5.21 4.38 -0.63 0 -0.77 -0.09 -0.54 -0.31z"/>
  <path d="M166.73 93.11 c-5.21 -4.69 -5.92 -5.44 -5.92 -6.21 0 -0.72 0.06 -0.80 0.43 -0.49 0.37 0.31 0.43 0.23 0.43 -0.52 0 -0.74 4.61 -29.13 5.01 -30.87 0.20 -0.89 1.06 -0.86 4.89 0.20 6.64 1.86 14.02 4.64 19 7.18 4.35 2.20 4.23 1.52 1.14 6.44 -1.49 2.35 -4.86 7.75 -7.53 11.99 -2.66 4.26 -6.15 9.76 -7.73 12.25 -2.35 3.72 -2.78 4.58 -2.49 4.92 0.31 0.37 0.23 0.43 -0.49 0.43 -0.66 0 -1.92 -1 -6.75 -5.32z"/>
  <path d="M139.23 85.84 c0.17 -0.17 -0.52 -4.15 -1.95 -11.36 -3.29 -16.34 -4.23 -21.66 -3.92 -21.86 0.66 -0.40 6.81 -0.69 13.71 -0.66 5.78 0.03 8.15 0.17 11.42 0.66 2.26 0.31 4.18 0.66 4.23 0.72 0.09 0.06 -1.57 6.32 -3.63 13.91 -2.98 10.93 -3.69 13.85 -3.40 14.19 0.26 0.34 0.20 0.40 -0.49 0.40 -0.63 0 -1.46 -0.54 -3.35 -2.20 l-2.55 -2.17 -4.32 4.32 c-3.63 3.63 -4.49 4.35 -5.21 4.35 -0.54 0 -0.74 -0.09 -0.54 -0.29z"/>
  <path d="M220.35 83.75 l-0.97 -1.20 1.09 1.06 c0.63 0.60 1.06 1.12 0.97 1.20 -0.06 0.06 -0.54 -0.40 -1.09 -1.06z"/>
  <path d="M217.17 80.20 l-1.57 -1.66 1.66 1.57 c1.52 1.43 1.77 1.72 1.55 1.72 -0.03 0 -0.77 -0.74 -1.63 -1.63z"/>
 </g>
 <g fill="#47669f">
  <path d="M54.65 143.55 c0 -0.77 0.31 -1.23 1.80 -2.66 0.97 -0.94 3 -2.69 4.49 -3.86 5.58 -4.41 17.57 -14.05 25.15 -20.20 7.15 -5.84 7.90 -6.38 8.90 -6.38 0.89 0 2.49 0.77 7.84 3.75 6.61 3.66 6.75 3.78 6.75 4.66 0 0.89 -0.09 0.94 -3.35 2.43 -3.78 1.69 -4.75 2.37 -10.24 7.07 -3.26 2.78 -3.98 3.26 -4.81 3.26 -0.54 0 -2.40 -0.60 -4.15 -1.32 -2.98 -1.20 -3.20 -1.26 -3.98 -0.89 -0.43 0.23 -4.78 2.72 -9.67 5.52 -13.13 7.53 -16.97 9.56 -17.91 9.56 -0.74 0 -0.83 -0.09 -0.83 -0.94z"/>
  <path d="M208.02 118.89 c-0.26 -0.23 -4.29 -3 -9.01 -6.15 l-8.56 -5.72 -0.74 0.72 c-0.54 0.52 -1.06 0.72 -1.89 0.72 -1 0 -1.32 -0.20 -2.69 -1.57 l-1.55 -1.57 -2.52 0 -2.52 0 0 -0.94 c0 -0.86 0.37 -1.23 4.21 -4.44 5.47 -4.55 5.04 -4.52 9.50 -0.40 1.83 1.72 3.78 3.49 4.32 3.95 1.20 1 2.15 1.97 5.87 6.01 1.57 1.69 3.98 4.18 5.38 5.52 2.12 2.09 2.49 2.58 2.49 3.38 0 0.89 -0.06 0.94 -0.94 0.94 -0.52 0 -1.12 -0.20 -1.34 -0.43z"/>
  <path d="M115.88 113.82 c0 -0.80 0.60 -1.60 4.06 -5.38 2.23 -2.43 9.53 -9.87 16.22 -16.51 11.82 -11.73 12.22 -12.07 13.31 -12.10 1.37 0 1.92 0.43 10.62 8.41 14.05 12.90 14.74 13.56 14.74 14.65 0 0.92 -0.06 0.97 -1.03 0.97 -0.66 0 -3.52 -1 -7.67 -2.69 -3.63 -1.49 -7.47 -3.06 -8.53 -3.46 l-1.92 -0.77 -3.43 1.75 c-2.46 1.26 -3.72 1.75 -4.52 1.75 -0.60 0 -2.58 -0.52 -4.41 -1.12 l-3.32 -1.09 -0.83 0.57 c-0.46 0.34 -5.06 3.75 -10.27 7.64 -11.82 8.81 -11.07 8.30 -12.13 8.30 -0.80 0 -0.89 -0.09 -0.89 -0.92z"/>
 </g>
 <g fill="#1a8b44">
  <path d="M138.92 287.82 c-12.19 -0.63 -24.98 -3.09 -37.05 -7.12 -14.94 -4.98 -28.53 -12.10 -41.20 -21.66 -6.72 -5.06 -13.91 -11.50 -17.80 -15.97 -2.17 -2.49 -2.23 -2.60 -2.23 -4.03 0 -1.17 0.17 -1.69 0.86 -2.63 0.49 -0.66 1.09 -1.34 1.37 -1.52 0.46 -0.29 0.40 -0.46 -0.57 -2.49 -1.29 -2.60 -1.80 -5.55 -1.55 -8.56 0.37 -4.18 1.80 -7.38 4.64 -10.36 2.26 -2.40 4.35 -3.86 7.24 -4.98 1.97 -0.80 2.55 -0.89 6.32 -1 4.78 -0.14 6.75 0.23 9.61 1.80 l1.75 0.94 2.55 -2.58 c1.40 -1.40 2.89 -2.75 3.32 -2.98 0.43 -0.23 1.55 -0.40 2.49 -0.40 l1.72 0 4.38 4.06 c2.40 2.23 5.72 5.12 7.38 6.44 15.62 12.48 34.79 19.26 54.37 19.26 17.97 -0.03 36.94 -6.58 52.48 -18.14 3.20 -2.37 9.36 -7.64 10.76 -9.18 0.40 -0.43 1.23 -1.17 1.83 -1.60 0.94 -0.72 1.37 -0.83 2.89 -0.83 2.06 0 2.32 0.14 5.61 3.35 l2.17 2.15 1.46 -0.74 c2.20 -1.12 4.69 -1.60 8.21 -1.60 5.72 0 9.33 1.46 13.33 5.44 3.98 3.95 5.58 8.04 5.32 13.59 -0.14 3.12 -0.80 5.44 -2.09 7.38 l-0.74 1.14 1.03 0.89 c1.95 1.69 2.75 2.98 2.75 4.41 l0 1.32 -5.06 5.04 c-11.16 11.04 -22.29 19.11 -36 26.04 -7.18 3.63 -11.36 5.44 -18.03 7.73 -17.68 6.04 -34.71 8.41 -53.51 7.41z m0.69 -11.30 c0.20 -1.06 0.31 -1.92 0.26 -1.95 -0.06 -0.03 -3.89 -0.63 -8.53 -1.29 -4.64 -0.66 -8.67 -1.29 -8.93 -1.37 -0.69 -0.17 -0.66 -2.06 0.06 -6.52 0.31 -1.89 0.57 -3.52 0.57 -3.63 0 -0.43 2.15 -0.23 9.13 0.80 7.44 1.09 7.44 1.09 7.47 -0.34 0 -0.34 0.09 -1 0.17 -1.46 l0.17 -0.83 -7.55 -1.09 c-4.12 -0.57 -7.75 -1.14 -8.01 -1.20 -0.40 -0.11 -0.52 -0.46 -0.52 -1.34 0 -1.49 1 -7.87 1.26 -8.13 0.09 -0.11 3.98 0.37 8.64 1.03 4.64 0.69 8.50 1.17 8.56 1.12 0.06 -0.03 0.20 -0.89 0.34 -1.86 l0.29 -1.75 -2.46 -0.34 c-1.34 -0.20 -6.27 -0.89 -10.90 -1.57 -4.64 -0.69 -8.47 -1.23 -8.47 -1.20 -0.03 0.03 -1.03 6.70 -2.23 14.79 -1.20 8.10 -2.26 15.14 -2.35 15.65 -0.17 1.12 -1.26 0.86 10.04 2.49 8.24 1.20 12.05 1.77 12.48 1.86 0.11 0 0.34 -0.83 0.52 -1.86z m22.29 0.86 c0.83 -0.14 1.20 -0.31 1.20 -0.66 0 -0.26 -0.40 -2.52 -0.86 -5.04 -0.94 -5.12 -1.09 -7.44 -0.46 -7.67 1.09 -0.43 7.41 -1.40 9.21 -1.46 2.15 -0.03 3.18 0.31 3.81 1.32 0.20 0.31 0.74 2.32 1.17 4.44 0.52 2.35 1.12 4.35 1.55 5.09 l0.72 1.20 1.95 -0.43 c1.06 -0.23 1.97 -0.43 2 -0.46 0.03 -0.03 -0.17 -0.57 -0.49 -1.20 -0.31 -0.63 -0.83 -2.58 -1.14 -4.38 -0.31 -1.77 -0.77 -3.72 -1.03 -4.29 -0.52 -1.20 -1.66 -2.49 -2.75 -3.06 -1.12 -0.57 -1.09 -2 0.03 -3.55 1.14 -1.57 1.57 -3.49 1.17 -5.26 -0.86 -3.86 -3.38 -6.52 -7.01 -7.47 -1.83 -0.46 -2.98 -0.34 -9.30 0.86 -1.34 0.26 -3.63 0.63 -5.09 0.86 -1.46 0.23 -2.83 0.52 -3.03 0.63 -0.29 0.17 -0.03 2.17 1.26 9.24 0.92 4.95 2.12 11.70 2.72 14.99 0.57 3.29 1.12 6.18 1.20 6.41 0.11 0.26 0.43 0.34 1.06 0.23 0.49 -0.09 1.43 -0.23 2.12 -0.34z m-64.64 -11.65 c0.83 -1.60 2.46 -4.66 3.61 -6.78 3.03 -5.61 9.33 -17.83 9.24 -17.88 -0.06 -0.03 -0.97 -0.54 -2.06 -1.14 -1.69 -0.94 -2.03 -1.03 -2.52 -0.74 -0.31 0.20 -2.40 1.95 -4.64 3.89 -11.25 9.79 -13.13 11.30 -14.11 11.30 -0.92 0 -0.94 -0.03 -0.94 -1.20 0 -0.69 0.26 -3.23 0.57 -5.69 0.77 -6.09 2 -16.62 2 -17.14 0 -0.37 -4.21 -2.80 -4.41 -2.55 -0.26 0.37 -14.45 26.55 -14.54 26.84 -0.06 0.17 0.69 0.77 1.63 1.32 l1.72 0.97 3.49 -6.50 3.46 -6.50 1.32 -0.09 1.32 -0.09 0 1.77 c0 1.60 -1.26 13.28 -1.57 14.76 -0.11 0.54 0.09 0.77 1.29 1.37 0.77 0.40 1.55 0.72 1.72 0.72 0.17 0 2.89 -2.26 6.07 -5.01 l5.78 -5.01 1.52 0 1.52 0 0 0.94 c0 0.63 -0.86 2.49 -2.75 5.92 -1.52 2.75 -3.06 5.61 -3.43 6.35 l-0.69 1.37 1.63 0.83 c0.92 0.49 1.80 0.86 1.95 0.86 0.17 0.03 0.97 -1.29 1.83 -2.92z m112.62 -2.23 c5.21 -1.95 9.01 -7.01 8.64 -11.53 -0.17 -2.29 -1.06 -4.41 -4.32 -10.33 -1.46 -2.66 -3.61 -6.58 -4.75 -8.67 -1.12 -2.06 -2.15 -3.83 -2.26 -3.89 -0.31 -0.20 -3.18 1.20 -3.35 1.63 -0.09 0.23 1.60 3.69 3.78 7.67 2.15 3.98 4.44 8.33 5.09 9.67 2.43 5.09 1.49 9.44 -2.49 11.42 -1.03 0.52 -1.75 0.63 -3.95 0.63 -3.15 0 -4.64 -0.54 -5.78 -2.03 -0.72 -0.97 -4.06 -7.04 -8.33 -15.19 -1.23 -2.32 -2.32 -4.29 -2.46 -4.38 -0.14 -0.09 -0.52 -0.03 -0.86 0.14 -0.31 0.14 -0.83 0.43 -1.14 0.57 -0.31 0.17 -0.74 0.29 -0.97 0.29 -1.09 0 -1.29 -0.43 6.41 14.16 3.23 6.09 5.12 8.38 8.18 9.79 2.83 1.29 5.24 1.29 8.56 0.06z m26.01 -37.17 c2.23 -1.12 3 -3.15 1.83 -4.86 -0.86 -1.29 -2.43 -2.15 -3.43 -1.92 -1.03 0.26 -2.52 1.57 -2.95 2.60 -0.66 1.52 0.40 3.49 2.29 4.35 1.09 0.49 0.92 0.49 2.26 -0.17z m-176.29 -0.83 c1.06 -1 1.20 -1.29 1.20 -2.43 0 -1.09 -0.17 -1.46 -0.97 -2.29 -1.37 -1.43 -2.58 -1.60 -4.06 -0.63 -1.37 0.92 -2.15 2.35 -1.86 3.49 0.11 0.43 0.69 1.29 1.29 1.89 1.55 1.52 2.75 1.52 4.41 -0.03z"/>
  <path d="M160.15 259.64 c-0.09 -0.31 -0.49 -2.29 -0.89 -4.44 -0.72 -3.66 -0.92 -5.69 -0.60 -5.69 0.06 0 1.97 -0.31 4.21 -0.72 6.29 -1.12 8.15 -0.92 9.73 0.94 1.40 1.66 1.40 5.61 0 7.27 -0.40 0.49 -1.14 1.06 -1.66 1.26 -1.29 0.54 -6.21 1.52 -8.58 1.75 -1.86 0.14 -2.06 0.11 -2.20 -0.37z"/>
  <path d="M178.98 222.47 c-0.77 -0.20 -3.55 -0.83 -6.15 -1.40 -6.09 -1.32 -11.53 -2.80 -13.33 -3.66 -1.32 -0.63 -1.40 -0.74 -1.49 -1.86 -0.11 -1.49 0.23 -1.75 5.24 -3.95 6.12 -2.69 11.59 -5.44 14.02 -7.01 8.38 -5.49 13.88 -13.08 13.96 -19.34 0.03 -1.80 -0.09 -2.29 -1.03 -4.21 -3.23 -6.52 -12.93 -11.82 -34.05 -18.66 l-2.52 -0.80 0.09 -1.03 c0.09 -1 0.14 -1.06 1.95 -1.63 1.03 -0.34 3.98 -1.55 6.58 -2.69 6.78 -2.98 11.70 -4.61 17.17 -5.61 2.17 -0.43 4.29 -0.52 10.59 -0.54 7.04 0 8.21 0.06 11.02 0.63 4.84 1 7.75 1.92 14.74 4.72 9.84 3.92 15.25 5.06 21.98 4.66 l3.20 -0.20 0 1.60 c0 1.80 -1.49 7.78 -3 12.19 -3.46 9.90 -9.27 20.57 -14.99 27.55 -1.43 1.75 -1.66 1.92 -2.66 1.92 -0.60 0 -1.09 -0.11 -1.09 -0.26 0 -0.43 -2.40 -1.69 -3.72 -2 -2.37 -0.54 -3.43 0.06 -8.64 4.89 -7.87 7.30 -12.90 11.02 -20.40 15.08 -4.03 2.20 -4.61 2.32 -7.44 1.60z"/>
  <path d="M91.82 211.11 c-1.32 -1.12 -4.01 -3.61 -5.98 -5.52 -2.06 -2 -4.12 -3.72 -4.89 -4.09 -2.17 -1.06 -4.52 -0.74 -6.72 0.94 -1.03 0.80 -2.86 0.97 -3.38 0.31 -7.73 -9.47 -13.59 -20.14 -17.02 -30.85 -1.49 -4.69 -2.60 -9.44 -2.60 -11.16 l0 -1.63 1.23 -0.31 c0.66 -0.14 4.86 -1.49 9.36 -3 13.36 -4.44 17.51 -5.29 25.61 -5.29 7.73 0 11.79 0.77 23.61 4.58 8.44 2.69 10.19 3.20 16.68 4.84 7.58 1.92 10.13 2.83 15.22 5.32 9.04 4.46 16.82 10.67 18.91 15.17 0.46 0.97 0.69 1.95 0.69 3.09 0 1.55 -0.09 1.72 -1.20 2.95 -2.15 2.35 -7.61 4.44 -17.83 6.84 -8.58 2 -13.02 3.20 -17.45 4.64 -8.81 2.86 -18.54 7.61 -26.41 12.88 -4.55 3.06 -4.64 3.06 -7.81 0.31z"/>
 </g>
 <g fill="#0e4c8b">
  <path d="M140.78 152.48 c-4.75 -0.54 -8.61 -1.52 -17.91 -4.55 -12.48 -4.06 -20.23 -5.38 -30.24 -5.06 -8.44 0.23 -12.65 1.20 -23.83 5.38 -7.64 2.86 -11.87 3.95 -15.88 4.18 l-3.06 0.17 -0.14 -1.40 c-0.11 -0.77 -0.26 -3.15 -0.37 -5.29 -0.14 -3.32 -0.11 -3.92 0.29 -4.23 0.40 -0.34 0.46 -0.31 0.46 0.23 0 0.31 0.09 0.60 0.23 0.60 0.11 0 2.06 -1.52 4.35 -3.32 2.29 -1.83 4.46 -3.55 4.86 -3.81 0.40 -0.23 1.63 -1.17 2.72 -2.09 1.12 -0.92 2.43 -2 2.98 -2.43 0.52 -0.46 1.97 -1.57 3.18 -2.52 1.23 -0.94 3.83 -3.03 5.81 -4.66 2 -1.60 3.72 -2.92 3.86 -2.92 0.14 0 0.54 -0.34 0.94 -0.74 0.37 -0.43 2.12 -1.86 3.83 -3.20 1.75 -1.34 4.64 -3.63 6.44 -5.06 4.69 -3.69 5.41 -4.21 5.81 -4.09 0.17 0.06 2.09 1.03 4.21 2.20 2.12 1.17 5.21 2.86 6.87 3.75 l2.98 1.66 3.81 -3.66 c2.09 -2 11.04 -10.79 19.91 -19.54 8.90 -8.78 16.31 -15.94 16.51 -15.94 0.37 0 2.49 1.83 8.15 7.01 10.42 9.53 19.83 17.88 20.09 17.88 0.14 0 1.03 -0.66 1.95 -1.46 0.94 -0.77 2.43 -1.97 3.29 -2.63 0.86 -0.66 2.52 -2 3.66 -2.98 1.14 -1 2.29 -1.80 2.52 -1.80 0.23 0 8.58 7.90 18.51 17.54 26.15 25.38 34.16 33.11 34.36 33.11 0.09 0 0.17 -0.26 0.17 -0.57 0 -0.40 0.14 -0.52 0.49 -0.37 0.40 0.17 0.43 0.69 0.29 5.09 -0.11 2.69 -0.26 5.15 -0.37 5.44 -0.20 0.46 -0.46 0.49 -2.95 0.31 -4.18 -0.29 -6.35 -0.83 -15.48 -3.89 -13.19 -4.44 -18.63 -5.55 -27.18 -5.55 -7.55 0 -14.05 1.17 -23.18 4.15 -10.42 3.40 -13.99 4.35 -19.46 5.01 -3.61 0.43 -10.07 0.46 -13.45 0.09z m-79.97 -11.76 c1.57 -0.86 6.92 -3.89 11.90 -6.75 4.98 -2.86 9.53 -5.41 10.07 -5.67 l1.06 -0.49 3.69 1.49 3.72 1.52 3.86 -3.29 c5.49 -4.72 6.50 -5.41 10.19 -7.07 1.80 -0.83 3.32 -1.52 3.38 -1.57 0.20 -0.20 -13.53 -7.58 -13.85 -7.47 -0.23 0.09 -3.83 2.95 -8.04 6.38 -6.75 5.49 -11.85 9.61 -25.41 20.46 -1.89 1.52 -4.01 3.35 -4.72 4.09 l-1.29 1.37 1.29 -0.74 c0.72 -0.40 2.58 -1.40 4.15 -2.26z m145.76 -25.24 c-1.63 -1.63 -4.06 -4.15 -5.41 -5.61 -3.15 -3.43 -4.21 -4.52 -5.44 -5.55 -0.54 -0.46 -2.52 -2.23 -4.35 -3.95 -3.03 -2.83 -3.40 -3.09 -3.89 -2.75 -0.31 0.20 -2.23 1.80 -4.32 3.52 l-3.75 3.15 2.52 0.09 2.52 0.09 1.55 1.55 c0.86 0.86 1.66 1.57 1.80 1.57 0.14 0 0.77 -0.46 1.40 -1 0.66 -0.60 1.26 -0.94 1.46 -0.83 1.55 0.92 18.23 12.19 18.37 12.42 0.09 0.14 0.26 0.29 0.37 0.29 0.09 0 -1.17 -1.34 -2.83 -2.98z m-80.66 -8.33 c4.01 -3 8.76 -6.52 10.53 -7.84 l3.23 -2.35 4.09 1.34 4.09 1.32 3.69 -1.89 c2.03 -1.03 3.83 -1.89 4.03 -1.89 0.40 0 3.63 1.26 12.05 4.69 3.38 1.37 6.18 2.43 6.24 2.37 0.14 -0.14 -4.72 -4.75 -14.62 -13.82 -6.41 -5.87 -9.33 -8.41 -9.70 -8.41 -0.14 0 -5.01 4.69 -10.84 10.47 -10.07 9.90 -15.17 15.11 -19.97 20.49 -2.52 2.80 -2.72 2.92 7.18 -4.49z"/>
 </g>
 <g fill="#0a4277">
  <path d="M49.96 154.48 c-0.29 -2.83 -0.23 -3.69 0.26 -3.69 0.23 0 0.43 0.20 0.43 0.46 0 0.43 0.29 0.46 2.29 0.29 3.38 -0.29 8.15 -1.60 14.99 -4.15 11.59 -4.35 15.39 -5.18 24.69 -5.38 11.10 -0.29 18.37 0.92 31.10 5.06 7.35 2.37 9.24 2.95 12.76 3.69 5.78 1.20 11.13 1.46 16.88 0.77 5.47 -0.66 9.04 -1.60 19.46 -5.01 9.50 -3.09 15.57 -4.15 24.04 -4.15 9.30 0 15.57 1.23 27.61 5.38 7.70 2.69 10.64 3.49 14.13 3.92 2.37 0.29 2.72 0.26 2.95 -0.14 0.49 -0.86 0.80 -0.46 0.80 1.06 0 2.20 -0.31 3.63 -0.74 3.63 -0.23 0 -0.40 -0.17 -0.40 -0.40 0 -0.26 -0.63 -0.43 -2.20 -0.57 -3.32 -0.31 -6.61 -1.09 -11.39 -2.75 -16.40 -5.69 -21.15 -6.70 -31.05 -6.70 -7.47 0.03 -12.25 0.80 -21.03 3.46 -1.89 0.57 -3.63 1.23 -3.89 1.43 -0.23 0.20 -0.74 0.37 -1.09 0.37 -0.37 0 -2.29 0.52 -4.29 1.14 -8.33 2.69 -16.97 3.66 -24.58 2.83 -4.95 -0.52 -9.64 -1.63 -16.85 -4.01 -13.91 -4.55 -19.11 -5.49 -30.13 -5.52 -5.81 -0.03 -7.84 0.09 -10.01 0.49 -4.69 0.86 -8.81 2.09 -15.17 4.44 -9.50 3.52 -10.10 3.69 -17.37 4.81 -0.57 0.09 -0.94 0.31 -0.94 0.54 0 0.23 -0.23 0.43 -0.54 0.43 -0.43 0 -0.54 -0.31 -0.72 -1.75z"/>
  <path d="M169.68 152.05 c0 -0.20 4.89 -1.63 5.04 -1.46 0.09 0.09 -0.29 0.23 -0.80 0.34 -0.52 0.11 -1.14 0.37 -1.37 0.57 -0.40 0.31 -2.86 0.80 -2.86 0.54z"/>
  <path d="M130.62 94.48 c2.52 -2.55 4.61 -4.64 4.66 -4.64 0.29 0 -0.86 1.20 -4.81 5.01 l-4.44 4.26 4.58 -4.64z"/>
 </g>
 <g fill="#1b592f">
  <path d="M176.69 224.36 c-0.09 -0.14 0.11 -0.37 0.46 -0.46 0.31 -0.11 0.52 -0.26 0.46 -0.34 -0.09 -0.06 -1.66 -0.43 -3.52 -0.83 -4.86 -1 -11.04 -2.63 -13.76 -3.61 -2.89 -1.03 -4.26 -2.35 -3.98 -3.78 0.29 -1.52 2.09 -2.80 7.12 -5.06 6.81 -3.09 11.87 -5.69 14.68 -7.58 6.55 -4.41 11.39 -11.39 11.76 -16.97 0.20 -3.20 -0.54 -5.01 -3.18 -7.64 -2.52 -2.49 -4.72 -3.95 -9.47 -6.27 -6.41 -3.12 -11.73 -5.12 -23.89 -8.98 -4.32 -1.37 -7.84 -2.63 -7.81 -2.78 0.03 -0.14 1.32 -0.40 2.86 -0.60 3.78 -0.46 7.10 -1.46 12.25 -3.69 13.82 -6.04 18.91 -7.15 31.67 -6.90 6.47 0.11 7.55 0.20 10.24 0.86 4.21 1 7.93 2.23 12.36 4.09 4.78 2 7.87 3.09 11.53 4.01 2.43 0.63 3.72 0.77 8.50 0.89 5.04 0.14 5.67 0.11 5.84 -0.31 0.31 -0.83 0.69 -0.49 0.69 0.63 0 2.09 -0.31 3.20 -0.89 3.20 -0.37 0 -0.54 -0.20 -0.54 -0.69 l0 -0.69 -2.95 0.14 c-3.83 0.20 -8.58 -0.29 -12.59 -1.34 -1.77 -0.46 -6.09 -1.97 -9.64 -3.38 -7.01 -2.80 -9.90 -3.72 -14.74 -4.72 -2.75 -0.54 -4.01 -0.63 -10.16 -0.60 -5.44 0 -7.61 0.11 -9.73 0.52 -5.49 1 -10.36 2.60 -17.40 5.69 -2.69 1.20 -5.64 2.40 -6.50 2.63 -0.86 0.26 -1.63 0.57 -1.72 0.69 -0.06 0.14 1 0.60 2.37 1.03 21.12 6.84 30.82 12.13 34.02 18.68 1.06 2.09 1.09 2.26 1.06 5.06 -0.06 4.41 -1.46 7.75 -5.24 12.53 -4.21 5.29 -10.33 9.21 -23.12 14.82 -1.95 0.83 -3.86 1.80 -4.29 2.15 -0.72 0.57 -0.74 0.69 -0.37 1.06 1.09 1.03 8.27 3.12 17.45 5.04 5.38 1.14 5.44 1.14 5.44 1.72 0 1.06 -4.75 2.63 -5.29 1.77z"/>
  <path d="M95.37 214.06 c-0.66 -0.54 -0.94 -1.03 -0.94 -1.57 0 -0.66 0.09 -0.74 0.40 -0.49 0.31 0.26 1.12 -0.14 3.92 -2.03 7.90 -5.29 17.63 -10.04 26.44 -12.90 4.44 -1.43 8.87 -2.63 17.45 -4.64 10.21 -2.40 15.68 -4.49 17.83 -6.84 1.40 -1.52 1.49 -2.26 0.52 -4.32 -2.09 -4.49 -9.87 -10.70 -18.91 -15.17 -5.09 -2.49 -7.64 -3.40 -15.22 -5.32 -6.50 -1.63 -8.24 -2.15 -16.68 -4.84 -11.45 -3.66 -15.97 -4.58 -22.75 -4.58 -7.15 0 -11.82 1 -24.75 5.29 -4.49 1.52 -8.70 2.86 -9.36 3 -1.12 0.29 -1.23 0.40 -1.23 1.14 0 0.66 -0.14 0.86 -0.54 0.86 -0.40 0 -0.57 -0.29 -0.72 -1.32 -0.37 -2.80 -0.09 -4.06 0.66 -2.78 0.23 0.46 1.23 0.17 10.39 -2.86 15.42 -5.09 16.71 -5.35 25.75 -5.44 8.18 -0.09 10.47 0.40 25.27 5.09 4.26 1.34 9.79 2.98 12.30 3.61 10.36 2.60 15.34 4.46 21.66 8.04 5.35 3.06 8.58 5.44 11.99 8.81 4.18 4.12 5.58 6.95 4.84 9.79 -0.46 1.69 -1.49 2.98 -3.49 4.26 -3.38 2.17 -8.36 3.75 -22.80 7.27 -7.73 1.86 -14.28 3.95 -19.77 6.27 -6.35 2.69 -13.96 6.84 -18.54 10.10 -1.75 1.23 -1.80 1.32 -1.32 1.83 0.46 0.52 0.46 0.54 -0.49 0.54 -0.63 -0.03 -1.29 -0.29 -1.89 -0.83z"/>
 </g>
 <g fill="#111011">
  <path d="M137.20 279.07 c-1.40 -0.23 -6.50 -0.97 -11.30 -1.66 -4.81 -0.72 -9.13 -1.34 -9.61 -1.43 l-0.89 -0.14 0.52 -3.81 c0.29 -2.06 1.34 -9.41 2.37 -16.28 1.03 -6.87 1.89 -12.65 1.89 -12.85 0 -0.23 0.46 -0.29 1.52 -0.20 2.06 0.20 22.06 3.12 22.20 3.26 0.06 0.06 -0.06 1.32 -0.26 2.83 l-0.37 2.75 -1.17 -0.17 c-0.63 -0.09 -4.55 -0.66 -8.70 -1.26 l-7.50 -1.09 -0.14 0.60 c-0.57 2.60 -1.03 6.84 -0.77 7.01 0.17 0.11 3.75 0.69 7.98 1.29 4.21 0.60 7.75 1.17 7.87 1.29 0.20 0.17 -0.49 5.12 -0.72 5.38 -0.06 0.06 -3.69 -0.43 -8.07 -1.06 -4.35 -0.66 -7.98 -1.12 -8.04 -1.06 -0.26 0.23 -1.34 8.21 -1.17 8.38 0.11 0.11 4.18 0.80 9.04 1.52 4.86 0.74 8.93 1.40 9.01 1.49 0.20 0.20 -0.66 5.21 -0.92 5.44 -0.11 0.09 -1.34 -0.03 -2.78 -0.23z"/>
  <path d="M157.69 277.52 c-0.20 -0.86 -0.80 -4.12 -1.34 -7.27 -0.54 -3.15 -1.72 -9.59 -2.58 -14.28 -0.86 -4.72 -1.55 -8.87 -1.55 -9.21 0 -0.77 0.72 -1.03 4.29 -1.55 1.17 -0.17 3.12 -0.49 4.29 -0.72 5.67 -1.12 8.33 -1.37 10.07 -1.06 0.94 0.17 2.26 0.57 2.89 0.89 4.86 2.37 6.90 9.61 3.86 13.82 -0.83 1.12 -0.86 1.23 -0.37 1.52 1.23 0.72 2.58 2.09 3.03 3.15 0.29 0.63 0.77 2.58 1.09 4.29 0.63 3.55 0.86 4.21 1.89 5.84 0.40 0.63 0.72 1.23 0.72 1.29 0 0.17 -5.06 1.32 -5.87 1.32 -1.12 0 -2.06 -1.97 -3 -6.38 -0.43 -2.12 -0.97 -4.12 -1.17 -4.44 -0.57 -0.92 -1.60 -1.32 -3.06 -1.26 -1.29 0.06 -7.47 1.09 -8.24 1.40 -0.57 0.20 -0.52 0.69 0.60 6.78 0.54 2.98 1 5.64 1 5.89 0 0.37 -0.52 0.54 -2.35 0.83 -1.32 0.20 -2.72 0.43 -3.12 0.52 -0.72 0.14 -0.80 0.06 -1.09 -1.37z m8.67 -19.17 c3.32 -0.66 4.38 -1.09 5.26 -2.06 2.15 -2.32 0.74 -6.64 -2.35 -7.24 -0.86 -0.14 -9.47 1.09 -9.81 1.40 -0.06 0.09 1.12 6.58 1.49 8.15 0.20 0.77 0.29 0.77 5.41 -0.26z"/>
  <path d="M93.22 268.99 c-1.34 -0.72 -2.55 -1.40 -2.66 -1.49 -0.20 -0.23 1 -2.72 3.95 -8.01 1.17 -2.12 2.40 -4.38 2.75 -5.04 l0.60 -1.23 -0.66 0 c-0.43 0 -2.66 1.75 -6.87 5.38 l-6.24 5.41 -2.20 -1.14 -2.20 -1.14 0.77 -6.18 c0.43 -3.40 0.86 -7.27 0.97 -8.58 0.31 -3.75 -0.23 -3.18 -4.29 4.35 -1.95 3.61 -3.66 6.67 -3.81 6.81 -0.34 0.34 -5.58 -2.52 -5.47 -3 0.26 -0.97 15.59 -28.76 15.88 -28.78 0.20 0 1.57 0.66 3.09 1.46 2.69 1.43 2.72 1.49 2.58 2.37 -0.06 0.49 -0.26 2.17 -0.43 3.75 -0.17 1.57 -0.77 6.52 -1.32 10.99 -0.54 4.46 -0.94 8.24 -0.92 8.38 0.09 0.23 6.27 -4.92 14.36 -11.99 2.75 -2.40 4.23 -3.52 4.69 -3.52 0.72 0 5.78 2.58 5.78 2.92 0 0.26 -7.18 14.19 -9.87 19.11 -0.97 1.80 -2.63 4.92 -3.69 6.95 -1.06 2 -2.03 3.61 -2.12 3.61 -0.11 -0.03 -1.32 -0.63 -2.69 -1.37z"/>
  <path d="M203.38 265.25 c-3.18 -0.57 -6.15 -2.63 -8.21 -5.72 -0.60 -0.86 -2.46 -4.21 -4.15 -7.44 -1.72 -3.23 -3.86 -7.32 -4.81 -9.10 -1.66 -3.12 -1.69 -3.26 -1.20 -3.81 0.26 -0.29 0.66 -0.54 0.89 -0.54 0.37 0 0.63 -0.11 2.29 -0.97 1.95 -1 2.06 -0.89 4.66 4.06 4.81 9.10 7.78 14.54 8.50 15.48 1.03 1.32 2.69 2.03 4.92 2.03 4.09 0 7.30 -3.26 6.81 -6.95 -0.09 -0.60 -0.66 -2.17 -1.29 -3.46 -1.14 -2.43 -9.10 -17.25 -9.53 -17.80 -0.14 -0.17 0.06 -0.60 0.54 -1.03 0.83 -0.80 3.81 -2.23 4.61 -2.23 0.34 0 1.20 1.29 2.66 3.92 1.17 2.17 3.40 6.21 4.89 8.96 3.83 6.98 4.26 8.13 4.44 11.45 0.14 3.20 -0.37 4.92 -2.23 7.53 -2.78 3.86 -9.16 6.47 -13.79 5.64z"/>
  <path d="M235.20 226.19 c0 -0.23 0.17 -0.43 0.40 -0.43 0.63 0 1.89 -1.66 1.89 -2.46 0 -0.40 -0.14 -0.97 -0.31 -1.29 -0.29 -0.54 -0.23 -0.57 0.66 -0.49 0.94 0.09 0.94 0.09 1.03 1.72 0.09 1.55 0.03 1.69 -0.86 2.49 -1.06 0.97 -2.80 1.23 -2.80 0.46z"/>
 </g>
 <g fill="#060504">
  <path d="M138.60 291.25 c-27.01 -1.46 -54.31 -11.25 -77.23 -27.67 -10.21 -7.32 -22.78 -19.03 -24.49 -22.80 -0.60 -1.29 -0.69 -2.86 -0.26 -4.01 0.26 -0.72 0.14 -0.94 -1.52 -2.80 -7.84 -8.81 -16.22 -21.80 -21.60 -33.53 -8.64 -18.77 -12.68 -37.03 -12.70 -57.51 -0.03 -12.13 1.14 -21.55 4.23 -34.05 7.64 -30.99 27.04 -59.89 53.48 -79.66 22.63 -16.94 48.39 -26.55 77.11 -28.78 7.50 -0.60 19.74 -0.46 25.90 0.26 19.60 2.29 36 7.12 52.22 15.37 13.93 7.07 25.92 15.85 37.11 27.18 11.50 11.65 20.46 24.21 27.27 38.17 13.10 27.01 17.34 55.57 12.45 84.41 -4.26 25.18 -17.11 51.76 -33.79 69.99 l-1.49 1.63 0.14 1.83 c0.20 2.52 -0.11 3.06 -4.61 7.64 -8.04 8.18 -15.62 14.42 -25.24 20.72 -26.21 17.17 -56.20 25.32 -86.98 23.63z m15.19 -4.26 c13.96 -0.92 25.09 -3.12 37.77 -7.44 6.67 -2.29 10.84 -4.09 18.03 -7.73 13.39 -6.75 24.55 -14.79 35.45 -25.47 5.12 -5.04 5.72 -5.75 5.47 -6.58 -0.11 -0.34 -1.09 -1.49 -2.17 -2.55 -1.09 -1.09 -1.97 -2.06 -1.97 -2.15 0 -0.11 0.46 -0.86 1 -1.69 2.15 -3.20 2.89 -7.27 2.03 -10.93 -0.83 -3.49 -2.26 -5.98 -5.01 -8.73 -3.78 -3.75 -7.67 -5.44 -12.48 -5.44 -2.98 0 -5.49 0.63 -7.93 1.95 l-1.95 1.03 -2.52 -2.43 c-3.20 -3.15 -3.95 -3.69 -5.06 -3.69 -0.97 0 -2.60 1.03 -3.86 2.43 -1.40 1.55 -7.55 6.81 -10.76 9.18 -13.33 9.93 -29.13 16.14 -45.32 17.85 -3.98 0.40 -12.70 0.34 -17.25 -0.14 -5.18 -0.54 -8.38 -1.12 -12.90 -2.29 -7.12 -1.86 -12.10 -3.75 -18.48 -7.04 -7.78 -4.03 -13.99 -8.53 -21.98 -15.94 -5.75 -5.32 -5.44 -5.32 -10.44 -0.40 -2.69 2.66 -3.12 3 -3.58 2.69 -3.52 -2.49 -5.47 -3.06 -10.36 -3.03 -3.61 0 -4.01 0.06 -6.04 0.86 -2.89 1.17 -4.98 2.60 -7.24 5.01 -2.63 2.78 -4.06 5.84 -4.61 9.73 -0.34 2.75 0.89 7.12 2.75 9.76 l0.63 0.89 -1.17 0.97 c-1.32 1.09 -2.35 2.60 -2.35 3.43 0 0.74 3.83 5.06 7.75 8.70 11.02 10.27 21.69 17.71 34.59 24.18 15.14 7.55 30.10 12.07 46.90 14.16 8.07 1 16.11 1.29 23.06 0.83z m104.67 -59.46 c6.18 -7.75 11.07 -15.51 15.51 -24.52 6.87 -13.93 10.59 -25.58 13.02 -40.69 1.34 -8.38 1.83 -21.37 1.12 -30.04 -3.63 -44.29 -29.27 -85.07 -68.07 -108.30 -15.25 -9.13 -32.39 -15.34 -50.53 -18.26 -6.78 -1.12 -11.36 -1.49 -20.43 -1.63 -11.65 -0.20 -19.74 0.46 -30.22 2.49 -42.69 8.21 -79.69 36.14 -99.23 74.94 -7.67 15.19 -11.85 29.24 -14.08 47.10 -0.60 5.01 -0.86 18.23 -0.43 23.89 1.49 19.80 7.50 39.26 17.63 57.08 3.20 5.64 9.67 15.02 12.99 18.86 l1.23 1.40 -0.26 -1.40 c-0.66 -3.95 0.34 -9.53 2.35 -13.13 3.06 -5.47 8.98 -10.01 15.17 -11.59 3.06 -0.77 7.81 -0.77 10.87 0 1.23 0.31 2.29 0.57 2.32 0.57 0.06 0 -0.74 -1.06 -1.77 -2.35 -8.36 -10.44 -15.08 -24.89 -18.08 -38.86 -2.40 -11.04 -2.72 -24.58 -0.89 -35.91 1.83 -11.25 6.50 -24.04 12.36 -33.76 10.13 -16.85 23.75 -29.41 41.26 -38.06 10.50 -5.18 21.03 -8.38 32.91 -10.01 7.27 -1 19.46 -0.86 27.61 0.31 33.05 4.78 61.06 24.84 75.68 54.19 9.64 19.34 12.65 40.49 8.73 61.09 -2.75 14.34 -9.10 28.73 -17.71 40.17 -2.72 3.58 -2.58 3.23 -1.14 2.72 0.80 -0.31 2.55 -0.52 4.72 -0.60 3.92 -0.17 6.78 0.37 10.01 1.89 10.36 4.84 16.14 16.51 12.85 25.84 -0.40 1.14 -0.83 2.35 -0.92 2.63 -0.23 0.77 2.17 -1.95 5.44 -6.07z m-101.95 1.83 c13.13 -1.80 25.09 -6.29 36.02 -13.53 4.32 -2.86 7.75 -5.67 13.42 -10.93 4.15 -3.83 4.86 -4.38 6.27 -4.78 1.09 -0.31 2.06 -0.40 3.12 -0.26 1.60 0.20 4.01 1.29 4.64 2.09 0.34 0.43 0.46 0.37 1.34 -0.66 4.58 -5.32 10.10 -14.65 13.59 -22.89 6.47 -15.19 8.67 -33.74 5.98 -49.64 -4.29 -25.29 -17.77 -46.73 -39.03 -61.98 -3.35 -2.40 -7.18 -4.66 -12.16 -7.15 -11.79 -5.89 -23.15 -9.01 -37.03 -10.13 -15.71 -1.26 -33.42 2.12 -47.58 9.04 -2.69 1.32 -5.01 2.52 -5.09 2.69 -0.09 0.14 -0.43 0.29 -0.77 0.29 -0.57 0 -3.32 1.40 -4.23 2.17 -0.23 0.17 -0.97 0.66 -1.63 1 -0.66 0.37 -2.35 1.49 -3.72 2.46 -9.61 6.78 -17.77 15.22 -23.95 24.78 -8.53 13.16 -13.08 25.69 -14.88 40.97 -0.63 5.44 -0.77 9.50 -0.46 14.76 1.23 20.23 8.30 38.17 21.35 54.22 0.43 0.54 0.43 0.54 2.09 -0.57 2.66 -1.80 6.04 -1.95 8.58 -0.37 0.57 0.34 2.78 2.29 4.89 4.35 8.58 8.27 15.97 13.36 25.58 17.68 7.95 3.58 17.02 5.92 26.21 6.75 3.92 0.37 13.65 0.14 17.45 -0.37z"/>
  <path d="M201.87 264.90 c-1.12 -0.40 -1.20 -0.49 -0.72 -0.80 0.23 -0.14 0.63 -0.11 0.94 0.06 0.29 0.14 0.80 0.20 1.12 0.14 0.40 -0.11 0.49 -0.06 0.26 0.20 -0.17 0.20 -0.23 0.46 -0.11 0.54 0.26 0.29 -0.49 0.20 -1.49 -0.14z"/>
  <path d="M199.58 263.87 l-0.86 -0.49 0.83 -0.09 c0.92 -0.11 1.40 0.20 1.09 0.72 -0.14 0.23 -0.43 0.20 -1.06 -0.14z"/>
  <path d="M196.95 261.75 c-1.66 -1.77 -3.29 -4.29 -2.95 -4.64 0.31 -0.31 1.12 0.54 1.14 1.20 0 0.17 0.14 0.34 0.29 0.34 0.17 0 0.29 0.31 0.29 0.72 0 0.52 0.46 1.20 1.43 2.15 0.77 0.80 1.32 1.43 1.20 1.43 -0.11 0 -0.74 -0.54 -1.40 -1.20z"/>
  <path d="M205.01 260.38 c0.09 -0.14 -0.26 -0.34 -0.77 -0.43 -0.94 -0.23 -1.46 -0.66 -1.20 -1.06 0.09 -0.11 0.46 -0.09 0.83 0.06 0.40 0.14 1.46 0.29 2.40 0.31 1.32 0.06 1.60 0.14 1.37 0.40 -0.17 0.20 -0.60 0.34 -0.92 0.31 -0.31 -0.03 -0.54 0.11 -0.52 0.29 0.03 0.17 -0.26 0.34 -0.63 0.34 -0.40 0 -0.63 -0.11 -0.57 -0.23z"/>
  <path d="M201.90 258.78 c-0.31 -0.23 -0.46 -0.40 -0.34 -0.40 0.14 0 -0.09 -0.26 -0.52 -0.60 -0.40 -0.31 -0.74 -0.83 -0.74 -1.12 0 -0.29 -0.14 -0.63 -0.29 -0.72 -0.63 -0.40 -2.52 -3.55 -2.20 -3.69 0.26 -0.09 0.26 -0.14 0 -0.14 -0.17 -0.03 -0.72 -0.86 -1.20 -1.86 -0.49 -1 -1 -1.92 -1.17 -2.03 -0.17 -0.09 -0.23 -0.29 -0.14 -0.43 0.20 -0.34 -1.12 -2.98 -2.15 -4.29 -0.43 -0.54 -1.09 -1.69 -1.43 -2.49 -0.34 -0.83 -0.74 -1.52 -0.89 -1.52 -0.14 0 -0.17 -0.20 -0.09 -0.43 0.26 -0.69 0.54 -0.31 2.20 2.80 0.86 1.60 2.80 5.24 4.29 8.07 1.52 2.83 2.80 5.29 2.83 5.44 0.09 0.37 0.72 1.17 1.89 2.40 0.97 1 0.92 1.75 -0.06 1z"/>
  <path d="M209.45 258.95 c-0.26 -0.17 -0.11 -0.37 0.52 -0.69 0.46 -0.23 1.29 -0.94 1.83 -1.57 0.66 -0.77 1.09 -1.06 1.34 -0.92 0.29 0.17 0.14 0.49 -0.52 1.26 -1.14 1.26 -2.69 2.20 -3.18 1.92z"/>
  <path d="M193.43 256.66 c0 -0.14 0 -0.37 0.03 -0.46 0 -0.11 -0.11 -0.29 -0.26 -0.37 -0.43 -0.29 -1.55 -2.63 -1.34 -2.83 0.26 -0.29 1.23 1.09 1.43 2 0.11 0.46 0.40 0.92 0.63 1.06 0.26 0.11 0.37 0.37 0.26 0.57 -0.26 0.40 -0.74 0.43 -0.74 0.03z"/>
  <path d="M178.75 254 c0.09 -0.69 -0.06 -2.06 -0.31 -3.09 -0.52 -1.95 -2.09 -4.64 -2.63 -4.44 -0.17 0.06 -0.66 -0.20 -1.09 -0.60 -1.72 -1.60 -6.01 -2.29 -9.33 -1.55 -1 0.23 -2.35 0 -1.83 -0.31 0.54 -0.34 5.69 -0.86 6.81 -0.69 5.06 0.77 8.30 4.29 8.67 9.44 0.11 1.29 0.06 2.17 -0.11 2.26 -0.20 0.11 -0.26 -0.26 -0.17 -1.03z"/>
  <path d="M188.62 247.50 c-1.14 -2.17 -1.66 -3.46 -1.49 -3.58 0.17 -0.11 0.34 -0.14 0.37 -0.11 1.26 2.43 1.75 3.49 1.77 3.95 0.03 0.31 0.31 0.80 0.63 1.09 0.69 0.57 1.09 1.69 0.72 1.92 -0.11 0.06 -1.03 -1.40 -2 -3.26z"/>
  <path d="M218.49 248.51 c-0.26 -0.60 -0.46 -1.12 -0.46 -1.20 0 -0.17 -1.26 -1.92 -1.52 -2.12 -0.14 -0.09 -0.23 -0.26 -0.20 -0.37 0.09 -0.31 -0.66 -1.97 -1.37 -3.03 -0.37 -0.54 -1.06 -1.80 -1.52 -2.78 -0.49 -1 -0.94 -1.80 -1.09 -1.80 -0.31 0 -1.20 -2 -1.03 -2.32 0.11 -0.14 0.06 -0.26 -0.11 -0.26 -0.31 0 -1.17 -1.46 -1.17 -2 0 -0.69 0.52 -0.17 1.40 1.52 0.54 0.97 2.17 3.98 3.63 6.64 2.63 4.78 4.29 8.36 4.01 8.64 -0.09 0.09 -0.34 -0.34 -0.57 -0.92z"/>
  <path d="M132.91 245.04 c-6.01 -1 -11.04 -1.72 -11.79 -1.60 -0.43 0.06 -0.69 0.37 -0.80 0.94 -0.29 1.26 -0.49 0.83 -0.26 -0.57 0.17 -1.03 0.29 -1.17 0.92 -1.17 1.20 0 16.74 2.32 17.37 2.58 0.92 0.40 -2.83 0.29 -5.44 -0.17z"/>
  <path d="M207.36 240.35 c-3.15 -5.84 -3 -5.52 -2.63 -5.72 0.14 -0.09 0.54 0.37 0.89 1 0.34 0.63 1.06 2 1.63 3.03 0.57 1.06 0.94 1.97 0.86 2.09 -0.11 0.09 0.06 0.34 0.34 0.57 0.29 0.20 0.54 0.69 0.60 1.06 0.03 0.37 0.09 0.77 0.09 0.89 0.03 0.11 0.20 0.14 0.40 0.06 0.31 -0.11 1.06 1.29 1.06 1.97 0 0.77 -0.83 -0.46 -3.23 -4.95z"/>
  <path d="M202.38 231.22 c-0.29 -0.46 -0.20 -0.66 0.43 -1.26 1.14 -1.03 2.06 -1.46 2.43 -1.09 0.20 0.20 0.06 0.37 -0.49 0.60 -0.43 0.14 -0.94 0.29 -1.14 0.29 -0.66 0 -1 0.60 -0.74 1.32 0.31 0.83 0 0.92 -0.49 0.14z"/>
  <path d="M208.30 229.14 c0 -0.17 -0.09 -0.23 -0.20 -0.14 -0.09 0.11 -0.40 0 -0.69 -0.26 -0.31 -0.26 -0.72 -0.40 -1 -0.29 -0.40 0.14 -0.43 0.11 -0.11 -0.26 0.60 -0.72 1.55 -0.52 2.09 0.43 0.29 0.49 0.37 0.86 0.23 0.86 -0.17 0 -0.31 -0.14 -0.31 -0.34z"/>
  <path d="M86.04 227.82 c-1.17 -0.63 -1.49 -0.69 -2.17 -0.43 -0.72 0.26 -0.80 0.23 -0.74 -0.17 0.06 -0.26 0.11 -0.54 0.11 -0.66 0.06 -0.46 1 -0.20 2.58 0.69 1.89 1.06 1.89 1.06 1.72 1.20 -0.06 0.09 -0.74 -0.20 -1.49 -0.63z"/>
  <path d="M55.97 227.48 c-1.77 -0.54 -3.03 -2.37 -3.03 -4.44 0 -2.20 1.26 -3.81 3.49 -4.44 2.09 -0.63 4.72 0.97 5.32 3.20 0.63 2.32 -0.86 5.06 -3.09 5.67 -1.17 0.31 -1.57 0.31 -2.69 0z m3.09 -2.32 c1.12 -0.89 1.40 -1.80 0.92 -2.95 -0.80 -1.95 -2.86 -2.49 -4.44 -1.14 -2.63 2.20 0.83 6.21 3.52 4.09z"/>
  <path d="M232.77 227.36 c-2.83 -1.23 -3.58 -5.32 -1.34 -7.38 1.14 -1.09 1.86 -1.37 3.40 -1.37 1.63 0 2.98 0.74 3.83 2.06 0.74 1.23 0.66 4.01 -0.17 5.18 -1.20 1.63 -3.86 2.35 -5.72 1.52z m4.35 -2.43 c0.97 -0.80 1.29 -2.20 0.52 -2.49 -0.23 -0.09 -0.49 -0.40 -0.57 -0.72 -0.23 -0.66 -1.55 -1.40 -2.55 -1.40 -0.94 0 -2.37 1.26 -2.60 2.29 -0.26 1.14 0.37 2.32 1.55 2.92 1.20 0.60 2.43 0.40 3.66 -0.60z"/>
  <path d="M263.33 195.34 c-0.83 -0.34 -1.52 -0.77 -1.52 -0.97 0 -0.17 0.60 -1.69 1.32 -3.38 0.72 -1.69 1.20 -3.18 1.06 -3.29 -0.26 -0.29 -3.29 -1.49 -3.38 -1.37 -0.03 0.06 -0.60 1.40 -1.29 3.03 -0.69 1.60 -1.26 2.92 -1.32 2.92 -0.03 0 -0.83 -0.34 -1.77 -0.74 l-1.69 -0.72 1.23 -3 1.23 -3 -1.49 -0.63 c-0.83 -0.37 -2.37 -1.03 -3.49 -1.49 -1.09 -0.46 -2.12 -0.92 -2.26 -1.03 -0.26 -0.23 0.83 -3.29 1.26 -3.55 0.14 -0.09 3.38 1.14 7.21 2.69 9.16 3.72 10.93 4.49 11.04 4.84 0.06 0.23 -3.23 8.44 -3.95 9.79 -0.37 0.69 -0.34 0.69 -2.20 -0.09z"/>
  <path d="M26.24 192.34 c-0.26 -0.43 -4.49 -11.79 -4.49 -12.05 0 -0.34 3.49 -1.52 3.72 -1.26 0.11 0.14 0.49 1.03 0.86 2.03 0.34 0.97 0.69 1.77 0.72 1.77 0.03 0 3.32 -1.23 7.30 -2.72 3.98 -1.49 7.32 -2.72 7.44 -2.72 0.37 0 1.55 3.43 1.26 3.72 -0.14 0.11 -3.46 1.43 -7.41 2.89 -3.92 1.46 -7.18 2.66 -7.21 2.69 -0.03 0.03 0.31 1 0.77 2.17 0.46 1.14 0.74 2.20 0.63 2.29 -0.40 0.37 -3.46 1.37 -3.58 1.17z"/>
  <path d="M262.27 174.66 c-5.98 -1.46 -9.18 -5.72 -7.78 -10.47 1.57 -5.41 8.38 -7.24 15.22 -4.12 4.15 1.92 6.01 5.52 4.84 9.50 -0.66 2.29 -2.75 4.44 -4.98 5.09 -1.89 0.54 -5.01 0.54 -7.30 0z m6.70 -4.26 c1.17 -0.60 1.72 -1.52 1.72 -2.92 0 -2.49 -2.80 -4.29 -7.18 -4.58 -2.52 -0.20 -4.03 0.34 -4.69 1.66 -1.69 3.23 1.72 6.21 7.24 6.24 1.32 0.03 2.40 -0.11 2.92 -0.40z"/>
  <path d="M18.97 169.93 c-0.20 -1.12 -0.23 -1.89 -0.09 -1.97 0.14 -0.09 1.83 -0.46 3.72 -0.83 1.89 -0.37 3.43 -0.72 3.43 -0.77 0 -0.03 -0.20 -0.94 -0.43 -2.03 -0.26 -1.06 -0.49 -2.20 -0.57 -2.55 l-0.14 -0.60 -2.63 0.49 c-1.46 0.29 -3.12 0.60 -3.69 0.69 l-1.03 0.17 -0.31 -1.46 c-0.57 -2.43 -0.60 -2.40 1.75 -2.80 3.38 -0.60 16.02 -2.89 16.82 -3.06 0.74 -0.14 0.77 -0.09 1.09 1.77 0.20 1.03 0.29 1.97 0.20 2.03 -0.06 0.09 -1.92 0.46 -4.09 0.86 -2.17 0.40 -3.98 0.74 -4.01 0.77 -0.09 0.06 0.92 4.72 1.06 4.84 0.09 0.09 1.75 -0.14 3.72 -0.52 1.97 -0.40 3.78 -0.69 4.01 -0.72 0.54 0 1.29 3.43 0.80 3.75 -0.49 0.31 -14.74 3.15 -17.85 3.55 l-1.40 0.20 -0.34 -1.80z"/>
  <path d="M15.74 142.64 l0 -6.15 2 0 2 0 0 4.15 0 4.18 1.95 -0.09 1.92 -0.09 0.09 -3.63 0.09 -3.66 1.83 0 1.86 0 0 3.72 0 3.72 2.29 0 2.29 0 0 -4.29 0 -4.29 2 0 2 0 0 6.29 0 6.29 -10.16 0 -10.16 0 0 -6.15z"/>
  <path d="M273.49 140.89 c-0.14 -0.11 -0.23 -1.14 -0.23 -2.32 l0 -2.09 -0.92 0 c-0.52 0 -4.09 0.20 -7.95 0.43 -3.83 0.23 -7.01 0.37 -7.04 0.34 -0.03 -0.03 -0.14 -0.92 -0.23 -1.95 l-0.20 -1.92 1.23 -0.14 c0.69 -0.09 4.23 -0.34 7.90 -0.52 l6.70 -0.37 -0.11 -2.29 -0.09 -2.32 1.86 -0.17 c1.03 -0.09 1.95 -0.09 2.03 0 0.20 0.20 0.97 12.88 0.80 13.05 -0.26 0.23 -3.55 0.46 -3.75 0.26z"/>
  <path d="M255.66 123.24 c-0.11 -0.34 -1 -3.43 -1 -3.49 0 0 2.20 -1.75 4.86 -3.86 2.69 -2.12 4.75 -3.89 4.58 -3.95 -0.17 -0.06 -2.49 0.43 -5.18 1.09 -2.69 0.63 -5.04 1.12 -5.21 1.06 -0.29 -0.09 -1.06 -2.26 -1.06 -3.09 0 -0.31 0.40 -0.57 1.23 -0.77 2 -0.52 17.68 -4.06 17.88 -4.06 0.17 0 1.26 3.52 1.12 3.61 -0.43 0.17 -9.93 8.10 -9.93 8.27 0 0.06 0.43 -0.03 0.94 -0.17 3.18 -0.83 10.07 -2.55 10.21 -2.55 0.09 0 0.37 0.83 0.63 1.86 l0.43 1.86 -1.03 0.29 c-0.57 0.14 -4.75 1.12 -9.33 2.15 -4.55 1.03 -8.47 1.95 -8.67 2 -0.20 0.09 -0.43 -0.03 -0.49 -0.23z"/>
  <path d="M30.04 118.57 c-6.04 -1.17 -10.01 -4.72 -10.01 -8.98 0 -4.03 3 -6.87 7.24 -6.87 l1.12 0 -0.20 1.52 c-0.29 2.29 -0.34 2.40 -1.52 2.60 -3 0.46 -3.38 3.89 -0.63 5.72 2.63 1.75 7.12 2.46 8.90 1.40 1 -0.60 1.80 -2.17 1.57 -3.09 -0.14 -0.60 -1.75 -2.23 -2.43 -2.46 -0.17 -0.09 0.03 -0.83 0.57 -1.92 l0.86 -1.80 0.89 0.52 c1.69 0.94 3.61 3.09 3.95 4.41 0.66 2.40 -0.20 5.32 -2.06 7.04 -1.57 1.46 -5.64 2.40 -8.24 1.92z"/>
  <path d="M250.25 104.50 c-0.20 -0.34 -4.75 -10.70 -4.75 -10.84 0 -0.14 1.37 -0.77 10.99 -4.98 3.89 -1.75 7.15 -3.12 7.18 -3.06 0.06 0.06 0.40 0.80 0.80 1.66 0.40 0.86 1.55 3.35 2.60 5.52 l1.89 3.95 -1.60 0.72 c-0.89 0.40 -1.75 0.66 -1.86 0.63 -0.14 -0.06 -1 -1.63 -1.86 -3.52 -0.89 -1.89 -1.69 -3.52 -1.80 -3.63 -0.11 -0.11 -0.92 0.14 -1.83 0.57 l-1.63 0.77 1.57 3.40 c0.86 1.89 1.57 3.43 1.57 3.49 0 0.11 -3.18 1.55 -3.43 1.55 -0.11 0 -0.89 -1.52 -1.72 -3.35 -0.83 -1.86 -1.55 -3.40 -1.57 -3.46 -0.09 -0.09 -3.63 1.40 -3.95 1.66 -0.11 0.11 0.17 1.06 0.66 2.09 0.46 1.06 1.23 2.78 1.72 3.81 l0.86 1.86 -1.57 0.72 c-1.72 0.74 -2.03 0.80 -2.26 0.46z"/>
  <path d="M36.68 98.26 c-3.69 -1.23 -6.61 -3.58 -7.81 -6.24 -0.77 -1.72 -0.72 -4.49 0.14 -6.32 1.66 -3.61 5.55 -5.18 9.99 -4.01 3.81 1 7.41 3.61 8.67 6.29 1.43 3.06 0.63 6.92 -1.89 9.10 -2.37 2.03 -5.44 2.43 -9.10 1.17z m5.95 -3.98 c1.23 -0.63 1.86 -2.32 1.43 -3.83 -0.86 -3.18 -7.61 -6.15 -10.19 -4.49 -1.86 1.23 -1.95 3.69 -0.20 5.64 2.49 2.75 6.50 3.95 8.96 2.69z"/>
  <path d="M241.67 86.70 c-0.57 -0.77 -1.03 -1.52 -1.03 -1.66 0.03 -0.11 1.77 -1.43 3.89 -2.92 5.41 -3.81 4.64 -3.81 -3.69 -0.06 l-1.66 0.74 -1.12 -1.26 c-0.63 -0.72 -1.12 -1.34 -1.14 -1.43 0 -0.09 1.69 -1.92 3.75 -4.09 2.06 -2.15 3.58 -3.92 3.35 -3.92 -0.20 0 -2.20 1.26 -4.46 2.78 l-4.12 2.80 -0.83 -1 c-1.57 -1.86 -1.57 -1.83 0.49 -3.29 1.03 -0.74 4.72 -3.20 8.21 -5.47 l6.35 -4.12 0.80 0.94 c0.43 0.49 1.12 1.40 1.55 1.97 l0.74 1.09 -0.74 0.92 c-0.37 0.52 -2.23 2.52 -4.06 4.46 -1.86 1.92 -3.32 3.55 -3.26 3.61 0.06 0.06 2.49 -0.92 5.41 -2.15 2.92 -1.26 5.41 -2.26 5.58 -2.26 0.26 0 3 3.75 3 4.09 0 0.14 -6.70 5.06 -11.59 8.50 -1.40 1 -2.98 2.12 -3.46 2.49 l-0.92 0.69 -1.03 -1.46z"/>
  <path d="M51.36 80.03 c-0.63 -0.23 -1.75 -0.77 -2.46 -1.23 -2.58 -1.66 -10.84 -7.67 -10.84 -7.90 0 -0.29 2 -3.09 2.20 -3.09 0.09 0 1.46 0.94 3.06 2.06 7.98 5.72 8.81 6.24 9.81 6.24 1.34 0 2.66 -1.29 2.66 -2.60 0 -1.23 -1.23 -2.37 -6.72 -6.32 -2.37 -1.69 -4.55 -3.23 -4.84 -3.46 -0.52 -0.37 -0.49 -0.46 0.69 -2 0.72 -0.97 1.34 -1.55 1.55 -1.43 0.17 0.11 1.55 1.09 3.03 2.20 1.49 1.09 3.43 2.49 4.29 3.12 2.69 1.97 4.61 3.66 5.35 4.84 1.86 2.78 0.26 7.53 -3.12 9.27 -1.17 0.60 -3.32 0.74 -4.66 0.31z"/>
  <path d="M227.45 68.59 l-1.32 -1.20 1.83 -5.58 c1 -3.06 1.80 -5.69 1.80 -5.87 0 -0.14 -1.75 1.46 -3.86 3.58 l-3.86 3.86 -1.37 -1.37 -1.34 -1.37 6.92 -6.84 c3.81 -3.78 7.04 -6.87 7.15 -6.87 0.14 0 0.80 0.57 1.49 1.26 l1.23 1.26 -0.72 1.97 c-0.40 1.06 -1.32 3.63 -2 5.67 -0.72 2.06 -1.40 3.98 -1.52 4.29 -0.11 0.31 1.69 -1.26 4.01 -3.49 2.35 -2.26 4.32 -4.09 4.44 -4.09 0.11 0 0.74 0.57 1.43 1.26 l1.23 1.23 -4.26 4.12 c-8.61 8.36 -9.70 9.41 -9.84 9.41 -0.06 -0.03 -0.72 -0.57 -1.43 -1.23z"/>
  <path d="M59.89 60.35 c-3.58 -3.78 -6.58 -7.01 -6.64 -7.18 -0.11 -0.34 2.23 -2.80 2.69 -2.80 0.14 0 2.92 0.97 6.15 2.15 3.20 1.17 5.87 2.09 5.89 2.06 0.03 -0.03 -1.69 -1.92 -3.83 -4.21 l-3.86 -4.12 1.37 -1.23 c0.74 -0.69 1.49 -1.20 1.60 -1.17 0.26 0.09 8.27 8.67 11.36 12.19 1 1.12 1.77 2.15 1.72 2.29 -0.26 0.69 -2.58 2.40 -3.03 2.26 -0.26 -0.09 -2.92 -1.06 -5.89 -2.20 -2.95 -1.12 -5.47 -1.97 -5.52 -1.89 -0.09 0.09 1.55 1.92 3.61 4.06 2.06 2.17 3.75 4.03 3.75 4.15 0 0.11 -0.63 0.74 -1.40 1.37 l-1.40 1.17 -6.55 -6.90z"/>
  <path d="M213.37 56.14 c-1.40 -0.92 -1.63 -1.17 -1.52 -1.77 0.09 -0.40 0.29 -2.35 0.49 -4.35 l0.34 -3.63 -0.83 -0.72 c-0.46 -0.40 -0.89 -0.72 -0.97 -0.74 -0.09 0 -1.09 1.43 -2.26 3.15 -1.17 1.75 -2.20 3.15 -2.26 3.15 -0.06 0 -0.89 -0.46 -1.80 -1.03 l-1.69 -1.03 1.92 -2.75 c1.03 -1.52 3.12 -4.52 4.64 -6.64 1.49 -2.12 3.18 -4.52 3.75 -5.35 l1.06 -1.49 3 1.95 c3.38 2.20 5.21 3.75 5.84 4.92 0.23 0.46 0.40 1.49 0.40 2.35 0 3.18 -2.32 5.72 -5.24 5.75 l-1.55 0.03 -0.49 4.41 c-0.26 2.40 -0.54 4.52 -0.63 4.64 -0.23 0.37 -0.37 0.31 -2.20 -0.83z m4.92 -12.36 c0.29 -0.14 0.69 -0.66 0.89 -1.14 0.29 -0.72 0.29 -0.97 -0.09 -1.52 -0.43 -0.66 -3.55 -2.98 -3.72 -2.75 -1.09 1.49 -2.20 3.18 -2.20 3.40 0 0.14 0.69 0.72 1.49 1.29 1.52 1 2.69 1.23 3.63 0.72z"/>
  <path d="M81 46.27 c-2.17 -3.35 -4.15 -6.29 -4.35 -6.55 -0.37 -0.46 -0.54 -0.40 -2.26 0.63 -1.03 0.63 -1.92 1.14 -2 1.14 -0.20 0 -2 -2.80 -2 -3.09 0 -0.23 10.42 -6.72 11.02 -6.87 0.52 -0.11 2.23 2.78 1.89 3.18 -0.14 0.20 -0.92 0.74 -1.72 1.20 -0.97 0.57 -1.43 1 -1.37 1.32 0.09 0.23 1.66 2.80 3.55 5.72 1.86 2.89 3.69 5.72 4.03 6.29 l0.63 1.06 -1.72 1 -1.72 1.03 -3.98 -6.07z"/>
  <path d="M191.85 43.84 c-2.83 -1.23 -5.38 -2.32 -5.64 -2.40 -0.43 -0.17 -0.26 -0.72 1.32 -4.29 3.35 -7.61 6.27 -13.68 6.61 -13.68 0.31 0 11.02 4.49 11.25 4.72 0.06 0.06 -0.23 0.89 -0.66 1.80 l-0.77 1.69 -3.89 -1.66 c-2.12 -0.94 -3.89 -1.66 -3.92 -1.60 -0.46 0.52 -1.55 3.18 -1.37 3.35 0.11 0.09 1.69 0.80 3.46 1.57 1.75 0.77 3.20 1.49 3.20 1.60 0 0.14 -0.31 0.94 -0.69 1.83 l-0.72 1.57 -2.98 -1.40 c-4.41 -2.06 -4.01 -2.06 -5.04 0.14 -0.49 1.03 -0.83 1.97 -0.77 2.09 0.06 0.09 1.75 0.89 3.75 1.75 2 0.86 3.69 1.72 3.78 1.92 0.17 0.46 -1.06 3.23 -1.46 3.23 -0.17 0 -2.63 -1.03 -5.47 -2.23z"/>
  <path d="M100.58 42.58 c-0.20 -0.52 -0.94 -2.17 -1.66 -3.69 l-1.29 -2.78 -4.92 -3.95 -4.92 -3.95 2 -1 2 -0.97 2.95 2.46 c1.63 1.34 3.06 2.40 3.18 2.32 0.11 -0.09 0.23 -1.80 0.23 -3.81 l0 -3.66 2.06 -0.74 c1.14 -0.40 2.12 -0.72 2.15 -0.66 0.03 0.03 -0.11 2.83 -0.34 6.27 l-0.43 6.18 1.57 3.61 c0.86 2 1.57 3.66 1.57 3.72 0 0.14 -3.18 1.57 -3.49 1.57 -0.14 0 -0.43 -0.43 -0.66 -0.92z"/>
  <path d="M173.48 37.54 c-1.77 -0.43 -1.77 -0.43 -1.92 -1.60 -0.54 -4.23 -0.94 -19.06 -0.52 -19.06 0.17 0 1.52 0.29 3.40 0.72 0.52 0.11 0.57 0.29 0.49 1.20 -0.09 0.60 -0.03 3.72 0.09 6.95 l0.23 5.87 0.83 -1.57 c0.72 -1.40 5.61 -10.30 5.78 -10.53 0.03 -0.06 0.97 0.17 2.09 0.52 l2 0.63 -0.54 1.03 c-1.34 2.58 -9.64 16.20 -9.87 16.25 -0.17 0.03 -1.09 -0.14 -2.06 -0.40z"/>
  <path d="M129.70 35.51 c-1.52 -0.40 -3.49 -1.72 -4.38 -2.92 -1.49 -2.06 -2.15 -4.58 -2.15 -8.13 0 -2.86 0.06 -3.29 0.80 -4.78 1.06 -2.15 2.60 -3.46 4.84 -4.09 3.49 -0.97 6.72 0.23 8.30 3.15 0.43 0.80 0.80 1.52 0.80 1.60 0 0.09 -0.80 0.40 -1.77 0.72 l-1.80 0.60 -1.17 -1.26 c-1.34 -1.43 -2.49 -1.60 -4.03 -0.66 -1.52 0.92 -1.89 1.97 -1.75 5.12 0.09 2.32 0.23 3.03 0.92 4.41 0.97 2 1.97 2.63 3.83 2.40 1.92 -0.20 2.75 -0.97 2.86 -2.60 l0.09 -1.34 -1.09 0.17 c-0.60 0.09 -1.37 0.23 -1.72 0.31 -0.54 0.11 -0.63 -0.06 -0.86 -1.69 -0.14 -0.97 -0.23 -1.80 -0.20 -1.86 0.03 -0.06 1.63 -0.31 3.55 -0.60 2.46 -0.37 3.52 -0.43 3.61 -0.20 0.06 0.17 0.37 1.92 0.69 3.86 l0.60 3.55 -1.34 1.37 c-2.37 2.40 -5.84 3.58 -8.61 2.86z"/>
  <path d="M152.88 34.88 c-2.60 -0.49 -4.69 -2.17 -5.87 -4.69 -0.57 -1.26 -0.66 -1.89 -0.66 -5.01 0 -3.98 0.40 -5.67 1.86 -7.70 1.83 -2.52 5.58 -3.55 8.90 -2.46 1.97 0.66 3.98 2.63 4.66 4.58 1.03 2.98 0.86 7.78 -0.37 10.62 -1.49 3.35 -5.09 5.35 -8.53 4.66z m3 -4.35 c0.89 -0.43 1.66 -1.77 2.03 -3.58 0.69 -3.29 0.26 -5.89 -1.26 -7.41 -1.80 -1.80 -4.49 -1.06 -5.64 1.57 -0.69 1.52 -0.83 5.64 -0.29 7.24 0.80 2.35 2.98 3.26 5.15 2.17z"/>
 </g>
</svg>